<?xml version="1.0" encoding="iso-8859-1"?>
<!-- Generator: Adobe Illustrator 18.0.0, SVG Export Plug-In . SVG Version: 6.00 Build 0)  -->
<!DOCTYPE svg PUBLIC "-//W3C//DTD SVG 1.1//EN" "http://www.w3.org/Graphics/SVG/1.1/DTD/svg11.dtd">
<svg version="1.1" id="Capa_1" xmlns="http://www.w3.org/2000/svg" xmlns:xlink="http://www.w3.org/1999/xlink" x="0px" y="0px"
	 viewBox="0 0 442.257 442.257" style="enable-background:new 0 0 442.257 442.257;" xml:space="preserve">
<g>
	<path d="M439.826,8.864l-6.429-6.429C431.827,0.865,429.738,0,427.517,0c-1.647,0-3.243,0.484-4.614,1.399l-7.862,5.248
		l-1.908-1.908c-1.561-1.562-4.096-1.562-5.656,0c-1.563,1.563-1.563,4.095,0,5.657l0.779,0.779l-6.017,4.017
		c-2.08,1.388-3.413,3.611-3.658,6.099c-0.123,1.246,0.035,2.48,0.445,3.623l-3.28,3.067l-3.418-3.418
		c0.897-1.446,1.549-2.974,1.885-4.502c0.725-3.299-0.038-6.37-2.093-8.424c-1.522-1.522-3.658-2.361-6.014-2.361
		c-3.439,0-7.107,1.696-10.065,4.652c-5.148,5.15-6.154,12.212-2.289,16.079c1.523,1.523,3.659,2.361,6.015,2.361
		c2.294,0,4.687-0.769,6.906-2.149l3.227,3.227l-16,14.958l-2.707-2.707c0.897-1.445,1.548-2.973,1.884-4.5
		c0.725-3.299-0.038-6.37-2.092-8.423c-1.523-1.523-3.659-2.362-6.015-2.362c-3.439,0-7.108,1.695-10.064,4.651
		c-5.15,5.15-6.156,12.213-2.291,16.079c1.523,1.523,3.659,2.362,6.015,2.362c2.295,0,4.688-0.77,6.908-2.15l2.516,2.516
		l-91.261,85.322c-14.457-10.064-30.92-16.121-46.772-17.135c-18.038-1.152-34.149,4.391-45.369,15.61
		c-1.452,1.453-2.826,2.888-4.14,4.315l-69.103-69.103l0,0c-0.001-0.001-0.003-0.003-0.005-0.004L97.478,58.953
		c-4.122-4.122-9.602-6.392-15.431-6.392c-4.471,0-8.731,1.346-12.336,3.829l-2.081-2.081c-1.563-1.562-4.095-1.562-5.657,0
		c-1.562,1.563-1.562,4.095,0,5.657l103.371,103.371c-0.19,0.377-0.382,0.754-0.565,1.133c-2.069,3.455-6.781,9.623-15.547,13.204
		c-3.137,1.291-5.157,4.302-5.147,7.672c0.01,3.283,1.894,6.083,4.9,7.299c0.093,0.039,1.152,0.529,1.152,0.529
		c1.222,0.48,2.114,1.156,2.718,2.053c1.772,2.652,0.855,7.577-2.454,13.174c-3.948,6.677-10.668,13.506-18.924,19.232
		c-11.643,8.083-24.708,12.525-32.519,11.042c-2.25-0.426-3.838-1.31-4.715-2.62c-0.068-0.106-0.735-1.197-3.031-6.795
		c-1.125-2.727-3.668-4.426-6.637-4.435c-0.007,0-0.014,0-0.021,0c-3.031,0-5.751,1.817-6.932,4.632
		c-1.641,3.909-3.986,7.403-6.969,10.386c-3.345,3.345-7.419,5.914-11.777,7.426c-16.87,5.829-30.855,13.979-40.445,23.568
		C2.544,286.725-3.35,309.361,1.836,334.576c4.797,23.326,18.492,47.225,38.562,67.295c20.066,20.065,43.962,33.757,67.286,38.553
		c5.97,1.227,11.793,1.833,17.418,1.833c18.134,0,34.193-6.305,46.318-18.43c9.581-9.581,17.733-23.561,23.578-40.433
		c2.901-8.388,9.39-15.225,17.787-18.751c0.936-0.389,1.765-0.94,2.465-1.64c1.769-1.769,2.534-4.288,2.045-6.738
		c-0.475-2.383-2.041-4.285-4.306-5.222c-5.488-2.251-6.61-2.913-6.781-3.024c-1.311-0.876-2.191-2.458-2.618-4.701
		c-1.482-7.804,2.953-20.88,11.035-32.538c5.725-8.255,12.554-14.975,19.231-18.92c5.598-3.308,10.525-4.223,13.177-2.45
		c0.898,0.603,1.574,1.498,2.065,2.735l0.507,1.112c1.224,3.023,4.023,4.907,7.307,4.917c0.009,0,0.017,0,0.024,0
		c3.359,0,6.36-2.019,7.649-5.152c3.608-8.801,9.767-13.485,13.208-15.531c0.38-0.184,0.758-0.377,1.136-0.568l131.276,131.276
		c0.78,0.781,1.805,1.171,2.828,1.171s2.048-0.391,2.828-1.171c1.563-1.563,1.563-4.095,0-5.657l-19.061-19.061l12.604-12.602
		L300.273,261.747c1.427-1.314,2.862-2.687,4.314-4.14c11.215-11.214,16.755-27.323,15.602-45.357
		c-1.013-15.854-7.07-32.316-17.132-46.77l75.119-80.348l3.829,3.829c-0.896,1.445-1.547,2.972-1.883,4.498
		c-0.725,3.299,0.038,6.37,2.092,8.423c1.523,1.523,3.659,2.362,6.015,2.362c3.439,0,7.108-1.695,10.065-4.652
		c5.148-5.15,6.154-12.212,2.29-16.078c-1.523-1.523-3.659-2.362-6.015-2.362c-2.296,0-4.689,0.77-6.909,2.151l-4.019-4.019
		l14.959-16.001l4.535,4.535c-2.847,4.6-2.906,9.805,0.214,12.927c1.523,1.523,3.659,2.362,6.015,2.362
		c3.44,0,7.109-1.695,10.064-4.651c2.231-2.231,3.788-4.95,4.383-7.656c0.725-3.299-0.038-6.37-2.092-8.423
		c-1.523-1.523-3.659-2.362-6.015-2.362c-2.295,0-4.689,0.77-6.909,2.151l-4.73-4.729l13.283-14.208
		c0.887,0.317,1.828,0.492,2.798,0.492c2.787,0,5.374-1.382,6.92-3.698l4.017-6.018l0.786,0.786c0.78,0.781,1.805,1.172,2.828,1.172
		s2.047-0.391,2.828-1.171c1.563-1.562,1.563-4.095,0-5.657l-1.914-1.914l5.248-7.862C443.056,16.074,442.621,11.66,439.826,8.864z
		 M379.419,24.334c-0.181-0.581,0.212-2.681,2.278-4.748c1.596-1.595,3.363-2.309,4.408-2.309c0.166,0,0.28,0.019,0.346,0.036
		c0.181,0.58-0.211,2.681-2.279,4.749c-1.594,1.595-3.361,2.308-4.406,2.308C379.6,24.37,379.484,24.351,379.419,24.334z
		 M358.282,45.471c-0.181-0.58,0.211-2.68,2.278-4.748c1.596-1.595,3.363-2.309,4.408-2.309c0.166,0,0.28,0.019,0.346,0.036
		c0.182,0.58-0.211,2.68-2.278,4.748c-1.596,1.595-3.363,2.309-4.408,2.309C358.462,45.506,358.348,45.488,358.282,45.471z
		 M394.916,89.188c0.181,0.581-0.212,2.681-2.278,4.748c-1.596,1.595-3.363,2.309-4.408,2.309c-0.166,0-0.28-0.019-0.346-0.036
		c-0.182-0.58,0.21-2.68,2.278-4.748c1.596-1.595,3.363-2.309,4.408-2.309C394.736,89.153,394.851,89.171,394.916,89.188z
		 M416.053,68.052c0.181,0.58-0.211,2.68-2.279,4.748c-1.594,1.595-3.362,2.308-4.407,2.308c-0.166,0-0.28-0.019-0.346-0.036
		c-0.181-0.581,0.212-2.681,2.278-4.748c1.596-1.595,3.363-2.309,4.408-2.309C415.873,68.016,415.988,68.035,416.053,68.052z
		 M404.105,31.116l7.039,7.039l-2.525,2.7l-7.215-7.215L404.105,31.116z M190.307,143.327c9.708-9.709,23.269-14.303,39.201-13.283
		c13.9,0.889,28.378,6.094,41.292,14.752l-45.211,42.268l-39.418-39.417C187.477,146.221,188.85,144.784,190.307,143.327z
		 M243.019,229.698l6.712-7.179l38.773,38.773c-2.73,2.149-5.442,4.046-8.179,5.712L243.019,229.698z M237.359,224.039
		l-19.137-19.137l7.179-6.712l18.669,18.669L237.359,224.039z M231.892,229.886l-20.063,21.46l-20.914-20.914l21.46-20.063
		L231.892,229.886z M212.563,199.242l-37.305-37.305c1.664-2.737,3.559-5.45,5.709-8.182l38.775,38.775L212.563,199.242z
		 M75.515,62.195c1.985-1.067,4.214-1.634,6.531-1.634c3.692,0,7.164,1.438,9.774,4.049l2,2c-3.584,0.353-7.09,1.599-10.175,3.716
		L75.515,62.195z M89.451,76.131c5.227-2.795,11.883-1.999,16.29,2.399l69.53,69.53c-2.158,2.691-4.091,5.37-5.82,8.071
		L89.451,76.131z M43.163,393.23l32.404-32.404l5.868,5.869l-32.404,32.404c-0.999-0.949-1.995-1.903-2.977-2.885
		C45.071,395.23,44.114,394.231,43.163,393.23z M87.607,361.551l-6.896-6.897l25.373-38.212l19.735,19.735L87.607,361.551z
		 M257.186,289.982c-0.057,0.138-0.272,0.015-0.272,0.015c-0.177-0.423-0.33-0.791-0.512-1.127
		c-1.094-2.597-2.744-4.648-4.914-6.105c-10.581-7.078-29.255,3.006-43.436,23.457c-9.514,13.722-14.235,28.509-12.32,38.589
		c0.83,4.367,2.915,7.776,6.025,9.855c0.716,0.48,2.092,1.235,6.681,3.151c-9.891,4.553-17.504,12.854-20.999,22.96
		c-5.372,15.508-13.07,28.788-21.675,37.393c-17.843,17.844-40.556,17.688-56.468,14.417c-18.478-3.799-37.414-13.67-54.308-28.13
		l34.652-34.652l48.75-32.371l-33.561-33.562l-32.372,48.75l-34.651,34.651c-14.46-16.897-24.333-35.833-28.133-54.31
		c-3.272-15.912-3.428-38.625,14.416-56.469c8.612-8.613,21.895-16.306,37.406-21.666c5.499-1.908,10.622-5.134,14.816-9.329
		c3.395-3.395,6.125-7.318,8.131-11.68c2.194,5.249,2.852,6.233,3.147,6.676c2.088,3.123,5.504,5.211,9.88,6.04
		c10.083,1.91,24.863-2.815,38.568-12.329c20.448-14.18,30.537-32.849,23.46-43.436c-1.466-2.177-3.521-3.827-6.111-4.91
		c-0.36-0.193-0.777-0.37-1.302-0.59c0.01-0.061,0.051-0.14,0.183-0.194c10.364-4.234,16.199-11.426,18.974-15.842l35.475,35.475
		l-27.307,25.529l32.614,32.614l25.53-27.307l35.48,35.48C268.622,273.782,261.445,279.592,257.186,289.982z M398.091,370.879
		l-6.946,6.946l-14.905-14.905l6.946-6.946L398.091,370.879z M377.529,350.317l-6.946,6.946L286.13,272.81
		c2.701-1.731,5.379-3.665,8.068-5.823L377.529,350.317z M312.206,212.761c1.019,15.935-3.571,29.486-13.274,39.189
		c-1.457,1.457-2.894,2.83-4.319,4.136l-39.415-39.414l42.259-45.2C306.113,184.384,311.317,198.86,312.206,212.761z
		 M249.538,211.012l-18.289-18.289L362.788,69.744l9.728,9.728L249.538,211.012z M368.635,64.278l5.076-4.746l9.017,9.017
		l-4.746,5.076L368.635,64.278z M388.195,62.702l-8.636-8.636l5.078-4.747l8.306,8.306L388.195,62.702z M390.483,43.852l5.075-4.745
		l7.595,7.595l-4.744,5.075L390.483,43.852z M420.415,35.582c-0.122,0.183-0.398,0.133-0.484,0.048l-13.299-13.3
		c-0.028-0.029-0.105-0.105-0.091-0.253s0.105-0.208,0.139-0.23l20.664-13.793C427.397,8.018,427.453,8,427.517,8
		c0.061,0,0.148,0.016,0.225,0.092l6.428,6.428c0.105,0.106,0.122,0.273,0.039,0.398L420.415,35.582z"/>
	<path d="M149.606,244.733c1.114,0,2.162,0.434,2.949,1.222c1.622,1.622,1.622,4.261,0,5.882l-1.726,1.726
		c-0.75,0.75-1.172,1.768-1.172,2.828c0,1.061,0.421,2.079,1.171,2.829l1.621,1.621c1.563,1.562,4.095,1.562,5.657,0
		c1.146-1.146,1.451-2.815,0.915-4.24c3.914-4.772,3.644-11.849-0.81-16.302c-2.299-2.299-5.355-3.565-8.606-3.565
		s-6.308,1.266-8.606,3.565l-31.393,31.393c-1.626,1.627-4.272,1.627-5.898,0c-1.622-1.622-1.622-4.261,0-5.882l1.726-1.726
		c0.75-0.75,1.171-1.768,1.171-2.829s-0.422-2.078-1.172-2.829l-1.621-1.62c-1.563-1.563-4.096-1.562-5.657,0
		c-1.146,1.146-1.451,2.816-0.915,4.24c-3.914,4.772-3.644,11.849,0.81,16.303c2.373,2.373,5.49,3.559,8.606,3.559
		c3.116,0,6.233-1.187,8.606-3.559l31.393-31.394C147.445,245.167,148.492,244.733,149.606,244.733z"/>
	<path d="M185.661,283.239c-1.424-0.536-3.093-0.231-4.24,0.915c-1.562,1.563-1.562,4.095,0,5.657l1.621,1.621
		c1.563,1.562,4.095,1.562,5.657,0l1.726-1.726c1.621-1.621,4.261-1.622,5.882,0c1.626,1.626,1.626,4.272,0,5.898l-31.393,31.393
		c-4.745,4.746-4.745,12.467,0,17.212c2.297,2.297,5.35,3.562,8.599,3.562c2.843,0,5.537-0.969,7.705-2.751
		c1.425,0.537,3.094,0.231,4.24-0.916c1.562-1.563,1.561-4.095-0.001-5.657l-1.621-1.621c-1.563-1.562-4.094-1.561-5.657,0
		l-1.726,1.726c-0.786,0.786-1.83,1.218-2.941,1.218c-1.111,0-2.156-0.433-2.941-1.219c-1.626-1.626-1.626-4.272,0-5.898
		l31.393-31.393c4.745-4.746,4.745-12.467,0-17.213C197.51,279.595,190.431,279.325,185.661,283.239z"/>
	<path d="M167.587,308.373c1.024,0,2.047-0.391,2.829-1.171c1.562-1.563,1.562-4.095,0-5.657l-29.698-29.698
		c-1.563-1.562-4.095-1.562-5.657,0c-1.562,1.563-1.562,4.095,0,5.657l29.698,29.698
		C165.54,307.982,166.563,308.373,167.587,308.373z"/>
</g>
<g>
</g>
<g>
</g>
<g>
</g>
<g>
</g>
<g>
</g>
<g>
</g>
<g>
</g>
<g>
</g>
<g>
</g>
<g>
</g>
<g>
</g>
<g>
</g>
<g>
</g>
<g>
</g>
<g>
</g>
</svg>
