<?xml version="1.0" encoding="iso-8859-1"?>
<!-- Generator: Adobe Illustrator 19.0.0, SVG Export Plug-In . SVG Version: 6.00 Build 0)  -->
<svg version="1.1" id="Capa_1" xmlns="http://www.w3.org/2000/svg" xmlns:xlink="http://www.w3.org/1999/xlink" x="0px" y="0px"
	 viewBox="0 0 479.896 479.896" style="enable-background:new 0 0 479.896 479.896;" xml:space="preserve">
<g>
	<g>
		<path d="M437.576,260.212l-88-88c-3.128-3.128-8.184-3.128-11.312,0l-47.304,47.304l-37.232,22.36h-29.784
			c-0.896,0-1.776,0.184-2.608,0.472l-40.96-15.36l-46.768-46.768c-3.128-3.128-8.184-3.128-11.312,0l-80,80
			c-3.136,3.128-3.136,8.184-0.008,11.312l47.608,47.608l19.504,26.008c-9.128,9.376-9.08,24.416,0.2,33.696l12.688,12.688l24,24
			l24,24l12.68,12.688c4.536,4.528,10.56,7.032,16.976,7.032s12.44-2.496,16.968-7.032l7.032-7.032l23.024,23.032
			c4.536,4.528,10.56,7.032,16.976,7.032s12.44-2.496,16.968-7.032l1.376-1.376c4.352-4.36,6.592-10,6.888-15.712
			c5.936-0.304,11.496-2.68,15.728-6.912l1.376-1.376c4.352-4.36,6.592-10,6.888-15.712c5.936-0.304,11.496-2.68,15.728-6.912
			l1.376-1.376c4.352-4.36,6.592-10,6.888-15.712c5.936-0.304,11.496-2.68,15.728-6.912l1.376-1.376
			c7.528-7.536,8.888-18.824,4.296-27.84l31.6-48.064l47.416-47.416C440.704,268.396,440.704,263.34,437.576,260.212z
			 M59.256,265.876l68.688-68.688l36.688,36.688l-68.688,68.688L59.256,265.876z M120.92,367.532c-3.12-3.12-3.12-8.192,0-11.312
			l9.376-9.376c3.016-3.032,8.288-3.032,11.312,0l1.368,1.376c3.12,3.12,3.12,8.192,0,11.312l-15.032,15.032L120.92,367.532z
			 M139.256,385.876l15.032-15.032c3.016-3.032,8.288-3.032,11.312,0l1.368,1.376c3.12,3.12,3.12,8.192,0,11.312l-15.024,15.032
			L139.256,385.876z M175.944,422.564l-12.688-12.688l15.032-15.032c3.016-3.032,8.288-3.032,11.312,0l1.368,1.376
			c3.12,3.12,3.12,8.192,0,11.312L175.944,422.564z M214.976,431.532l-9.376,9.376c-3.016,3.032-8.288,3.032-11.312,0l-7.032-7.032
			l15.032-15.032c3.016-3.032,8.288-3.032,11.312,0l1.368,1.376C218.088,423.34,218.088,428.412,214.976,431.532z M342.968,383.532
			l-1.376,1.376c-3.016,3.032-8.288,3.032-11.312,0l-20.688-20.688l-11.312,11.312l20.68,20.688c3.12,3.12,3.12,8.192,0,11.312
			l-1.376,1.376c-3.016,3.032-8.288,3.032-11.312,0l-20.688-20.688l-11.312,11.312l20.68,20.688c3.12,3.12,3.12,8.192,0,11.312
			l-1.376,1.376c-3.016,3.032-8.288,3.032-11.312,0l-20.688-20.688l-11.312,11.312l20.68,20.688c3.12,3.12,3.12,8.192,0,11.312
			l-1.376,1.376c-3.016,3.032-8.288,3.032-11.312,0L232.6,431.252c1.784-7.792-0.288-16.288-6.344-22.344l-1.368-1.376
			c-4.224-4.224-9.928-6.392-15.712-6.68c-0.248-5.8-2.504-11.528-6.92-15.944l-1.368-1.376c-4.224-4.224-9.928-6.392-15.712-6.68
			c-0.248-5.8-2.504-11.528-6.92-15.944l-1.368-1.376c-4.224-4.224-9.928-6.392-15.712-6.68c-0.248-5.8-2.504-11.528-6.92-15.944
			l-1.368-1.376c-8.456-8.448-22.696-8.92-31.944-1.608l-14.464-19.296l71.456-71.456l29.04,10.888l-38.048,33.32
			c-0.048,0.04-0.08,0.096-0.12,0.136c-1.456,1.288-2.728,2.712-3.856,4.224c-0.472,0.632-0.832,1.312-1.248,1.976
			c-0.6,0.96-1.184,1.912-1.656,2.92c-0.416,0.872-0.736,1.76-1.056,2.664c-0.312,0.888-0.584,1.784-0.808,2.696
			c-0.24,0.968-0.448,1.936-0.576,2.936c-0.136,0.992-0.168,1.984-0.2,2.984c-0.024,0.712-0.176,1.392-0.144,2.112
			c0.008,0.224,0.088,0.432,0.104,0.656c0.12,1.856,0.392,3.696,0.88,5.512c0.128,0.472,0.36,0.904,0.512,1.376
			c0.464,1.432,1.008,2.848,1.704,4.208c0.304,0.584,0.68,1.12,1.024,1.68c0.48,0.792,0.872,1.616,1.44,2.368
			c0.264,0.352,0.6,0.616,0.88,0.952c0.504,0.616,1.056,1.176,1.608,1.752c0.848,0.872,1.728,1.696,2.68,2.448
			c0.392,0.312,0.688,0.704,1.096,1c0.544,0.4,1.152,0.688,1.72,1.04c0.272,0.168,0.544,0.344,0.824,0.496
			c4.696,2.68,10,3.888,15.336,3.576c0.888-0.04,1.744-0.184,2.616-0.312c0.68-0.104,1.36-0.208,2.04-0.36
			c1.096-0.24,2.16-0.544,3.224-0.912c0.472-0.16,0.928-0.36,1.392-0.544c1.064-0.44,2.12-0.888,3.136-1.456
			c0.8-0.44,1.544-0.984,2.312-1.496c0.536-0.376,1.12-0.648,1.632-1.056l0.352-0.28l22.08-17.672l21.384-7.128h19.808l45.24,37.656
			l28.68,28.688C346.088,375.34,346.088,380.412,342.968,383.532z M347.744,354.372L333.6,340.22l-0.016,0.016l-8.52-8.504l-48-40
			c-1.44-1.2-3.248-1.856-5.12-1.856h-24c-0.856,0-1.712,0.144-2.528,0.416l-24,8c-0.896,0.296-1.728,0.752-2.472,1.336
			l-23.192,18.56c-2.24,1.792-4.936,2.784-7.608,2.952c-0.08,0-0.168-0.008-0.248-0.008c-1.008,0.04-2-0.104-2.968-0.304
			c-0.4-0.088-0.816-0.144-1.2-0.272c-0.944-0.296-1.832-0.728-2.656-1.272c-0.384-0.24-0.744-0.52-1.104-0.8
			c-0.384-0.32-0.768-0.648-1.104-1c-0.248-0.256-0.496-0.512-0.728-0.792c-0.232-0.28-0.424-0.592-0.632-0.888
			c-1.664-2.408-2.376-5.216-2.168-7.976c0.016-0.184,0.016-0.376,0.04-0.56c0.168-1.36,0.552-2.688,1.16-3.928
			c0.08-0.168,0.192-0.328,0.28-0.496c0.68-1.248,1.528-2.424,2.656-3.408l47.48-41.56h28.992c1.448,0,2.872-0.392,4.12-1.144
			l34.64-20.784l78.976,78.976L347.744,354.372z M383.944,302.564l-76.688-76.688l36.688-36.688l76.688,76.688L383.944,302.564z"/>
	</g>
</g>
<g>
	<g>
		<path d="M333.6,20.22c-20.768-20.768-54.544-20.768-75.312,0l-18.344,18.344L221.6,20.22c-20.768-20.768-54.544-20.768-75.312,0
			c-20.768,20.768-20.768,54.544,0,75.312l88,88c1.56,1.56,3.608,2.344,5.656,2.344c2.048,0,4.096-0.784,5.656-2.344l88-88
			C354.368,74.764,354.368,40.988,333.6,20.22z M322.288,84.22l-82.344,82.344L157.6,84.22c-14.52-14.52-14.52-38.168,0-52.688
			c7.264-7.264,16.808-10.888,26.344-10.888s19.08,3.624,26.344,10.888l24,24c3.128,3.128,8.184,3.128,11.312,0l24-24
			c14.52-14.528,38.168-14.528,52.688,0C336.808,46.052,336.808,69.7,322.288,84.22z"/>
	</g>
</g>
<g>
	<g>
		<path d="M29.864,125.74c-2.656,4.8-5.184,9.76-7.512,14.752l14.496,6.768c2.168-4.648,4.528-9.28,7.008-13.752L29.864,125.74z"/>
	</g>
</g>
<g>
	<g>
		<path d="M47.848,97.98c-3.296,4.392-6.488,8.96-9.472,13.576l13.432,8.688c2.784-4.296,5.76-8.552,8.832-12.656L47.848,97.98z"/>
	</g>
</g>
<g>
	<g>
		<path d="M6.176,187.348c-1.248,5.352-2.328,10.816-3.192,16.256l15.8,2.528c0.816-5.072,1.816-10.168,2.976-15.16L6.176,187.348z"
			/>
	</g>
</g>
<g>
	<g>
		<path d="M15.872,155.732c-1.968,5.12-3.784,10.384-5.4,15.648l15.296,4.688c1.504-4.904,3.2-9.824,5.04-14.6L15.872,155.732z"/>
	</g>
</g>
<g>
	<g>
		<path d="M39.216,341.396l-14.336,7.112c2.432,4.896,5.08,9.8,7.864,14.56l13.808-8.096
			C43.952,350.532,41.48,345.964,39.216,341.396z"/>
	</g>
</g>
<g>
	<g>
		<path d="M94.288,51.108c-4.392,3.36-8.696,6.888-12.792,10.496l10.576,12c3.816-3.36,7.832-6.656,11.936-9.8L94.288,51.108z"/>
	</g>
</g>
<g>
	<g>
		<path d="M69.472,72.956c-3.88,3.904-7.664,7.992-11.24,12.136l12.112,10.456c3.344-3.864,6.872-7.68,10.488-11.328L69.472,72.956z
			"/>
	</g>
</g>
<g>
	<g>
		<path d="M0.92,220.036c-0.488,5.48-0.8,11.032-0.92,16.512l16,0.344c0.112-5.112,0.4-10.296,0.856-15.432L0.92,220.036z"/>
	</g>
</g>
<g>
	<g>
		<path d="M19.72,283.004l-15.736,2.904c0.992,5.368,2.192,10.808,3.576,16.168l15.496-4
			C21.768,293.084,20.64,288.012,19.72,283.004z"/>
	</g>
</g>
<g>
	<g>
		<path d="M16.192,252.332L0.208,253.06c0.248,5.472,0.688,11.016,1.32,16.496l15.896-1.832
			C16.832,262.604,16.424,257.428,16.192,252.332z"/>
	</g>
</g>
<g>
	<g>
		<path d="M27.432,312.876l-15.176,5.064c1.736,5.2,3.68,10.416,5.784,15.504l14.784-6.104
			C30.864,322.596,29.048,317.732,27.432,312.876z"/>
	</g>
</g>
<g>
	<g>
		<path d="M73.92,392.268L62.08,403.02c3.712,4.096,7.592,8.088,11.52,11.856l11.08-11.528
			C81.016,399.82,77.392,396.092,73.92,392.268z"/>
	</g>
</g>
<g>
	<g>
		<path d="M148.392,446.364l-6.56,14.592c5.008,2.248,10.168,4.36,15.336,6.248l5.512-15.008
			C157.864,450.428,153.056,448.468,148.392,446.364z"/>
	</g>
</g>
<g>
	<g>
		<path d="M96.176,413.668l-10.264,12.264c4.208,3.52,8.592,6.944,13.032,10.176l9.416-12.936
			C104.208,420.148,100.112,416.956,96.176,413.668z"/>
	</g>
</g>
<g>
	<g>
		<path d="M121.152,431.82l-8.496,13.544c4.672,2.936,9.496,5.736,14.328,8.304l7.528-14.112
			C130.008,437.156,125.52,434.556,121.152,431.82z"/>
	</g>
</g>
<g>
	<g>
		<path d="M54.808,368.02l-13.216,9.024c3.104,4.544,6.4,9.04,9.8,13.344l12.552-9.928C60.776,376.444,57.696,372.268,54.808,368.02
			z"/>
	</g>
</g>
<g>
	<g>
		<path d="M383.2,414.076c-3.96,3.288-8.064,6.48-12.2,9.472l9.376,12.968c4.432-3.2,8.832-6.616,13.064-10.144L383.2,414.076z"/>
	</g>
</g>
<g>
	<g>
		<path d="M386.168,51.556L376.4,64.228c4.056,3.128,8.064,6.44,11.92,9.84l10.6-11.984C394.8,58.436,390.512,54.9,386.168,51.556z"
			/>
	</g>
</g>
<g>
	<g>
		<path d="M405.52,392.74c-3.496,3.84-7.128,7.552-10.784,11.04l11.048,11.576c3.928-3.752,7.816-7.728,11.56-11.832L405.52,392.74z
			"/>
	</g>
</g>
<g>
	<g>
		<path d="M424.712,368.556c-2.888,4.2-5.984,8.384-9.184,12.432l12.536,9.936c3.432-4.328,6.736-8.808,9.832-13.304
			L424.712,368.556z"/>
	</g>
</g>
<g>
	<g>
		<path d="M330.92,446.628c-4.688,2.088-9.504,4.032-14.304,5.784l5.472,15.032c5.152-1.864,10.312-3.952,15.344-6.2L330.92,446.628
			z"/>
	</g>
</g>
<g>
	<g>
		<path d="M358.184,432.156c-4.392,2.728-8.888,5.32-13.376,7.696l7.496,14.144c4.816-2.544,9.64-5.328,14.336-8.256
			L358.184,432.156z"/>
	</g>
</g>
<g>
	<g>
		<path d="M432.472,98.556l-12.832,9.56c3.056,4.104,6.016,8.376,8.808,12.696l13.448-8.672
			C438.92,107.524,435.744,102.956,432.472,98.556z"/>
	</g>
</g>
<g>
	<g>
		<path d="M464.256,156.364l-14.944,5.704c1.816,4.768,3.496,9.672,4.992,14.6l15.312-4.656
			C468.008,166.74,466.208,161.468,464.256,156.364z"/>
	</g>
</g>
<g>
	<g>
		<path d="M440.392,341.956c-2.296,4.592-4.784,9.168-7.384,13.56l13.784,8.144c2.784-4.72,5.448-9.616,7.912-14.544
			L440.392,341.956z"/>
	</g>
</g>
<g>
	<g>
		<path d="M450.368,126.364l-14.024,7.704c2.48,4.512,4.832,9.152,6.976,13.784l14.512-6.736
			C455.536,136.164,453.024,131.196,450.368,126.364z"/>
	</g>
</g>
<g>
	<g>
		<path d="M410.936,73.468l-11.4,11.232c3.592,3.64,7.112,7.472,10.456,11.368l12.144-10.424
			C418.552,81.476,414.784,77.372,410.936,73.468z"/>
	</g>
</g>
<g>
	<g>
		<path d="M479.016,220.684l-15.936,1.392c0.448,5.104,0.72,10.288,0.816,15.416l16-0.296
			C479.792,231.7,479.496,226.14,479.016,220.684z"/>
	</g>
</g>
<g>
	<g>
		<path d="M473.88,188.004l-15.6,3.576c1.144,4.984,2.128,10.088,2.928,15.16l15.808-2.488
			C476.168,198.812,475.104,193.348,473.88,188.004z"/>
	</g>
</g>
<g>
	<g>
		<path d="M452.264,313.468c-1.64,4.848-3.472,9.72-5.44,14.464l14.776,6.144c2.104-5.08,4.064-10.296,5.824-15.496L452.264,313.468
			z"/>
	</g>
</g>
<g>
	<g>
		<path d="M463.672,252.948c-0.248,5.136-0.68,10.312-1.272,15.4l15.888,1.856c0.64-5.432,1.104-10.976,1.368-16.472
			L463.672,252.948z"/>
	</g>
</g>
<g>
	<g>
		<path d="M460.064,283.596c-0.944,5.024-2.08,10.088-3.384,15.064l15.488,4.048c1.392-5.336,2.608-10.768,3.624-16.144
			L460.064,283.596z"/>
	</g>
</g>
<g>
</g>
<g>
</g>
<g>
</g>
<g>
</g>
<g>
</g>
<g>
</g>
<g>
</g>
<g>
</g>
<g>
</g>
<g>
</g>
<g>
</g>
<g>
</g>
<g>
</g>
<g>
</g>
<g>
</g>
</svg>
