<?xml version="1.0" encoding="iso-8859-1"?>
<!-- Generator: Adobe Illustrator 19.0.0, SVG Export Plug-In . SVG Version: 6.00 Build 0)  -->
<svg version="1.1" id="Capa_1" xmlns="http://www.w3.org/2000/svg" xmlns:xlink="http://www.w3.org/1999/xlink" x="0px" y="0px"
	 viewBox="0 0 480 480" style="enable-background:new 0 0 480 480;" xml:space="preserve">
<g>
	<g>
		<path d="M464,208v256h-32V240h-16v224h-32V272h-16v192h-32V272h-16v192h-32V272h-16v192h-32V272h-16v192h-32V320h-16v144h-32V336
			h-16v128H96v-96H80v96H48v-72H32v72H16V0H0v472c0,4.424,3.584,8,8,8h32h48h48h48h48h48h48h48h48h48c4.416,0,8-3.576,8-8V208H464z"
			/>
	</g>
</g>
<g>
	<g>
		<path d="M466.12,114.576L372.496,216H232c-2.272,0-4.432,0.96-5.944,2.648l-66.848,74.272l-42.088-35.072
			c-1.64-1.368-3.76-2-5.88-1.816c-2.12,0.2-4.08,1.24-5.432,2.896l-72,88l12.384,10.128l66.888-81.752l41.8,34.832
			c3.296,2.752,8.192,2.392,11.064-0.8L235.56,232H376c2.232,0,4.36-0.928,5.88-2.568l96-104L466.12,114.576z"/>
	</g>
</g>
<g>
	<g>
		<rect x="256" width="32" height="16"/>
	</g>
</g>
<g>
	<g>
		<rect x="320" width="136" height="16"/>
	</g>
</g>
<g>
	<g>
		<rect x="256" y="40" width="32" height="16"/>
	</g>
</g>
<g>
	<g>
		<rect x="320" y="40" width="136" height="16"/>
	</g>
</g>
<g>
	<g>
		<rect x="256" y="80" width="32" height="16"/>
	</g>
</g>
<g>
	<g>
		<rect x="320" y="80" width="136" height="16"/>
	</g>
</g>
<g>
	<g>
		<path d="M140.8,97.6L80.296,52.224C82.112,40.784,92.048,32,104,32c13.232,0,24,10.768,24,24h16c0-19.312-13.768-35.472-32-39.192
			V0H96v16.808C77.768,20.528,64,36.688,64,56c0,2.512,1.184,4.888,3.2,6.4l60.504,45.376C125.888,119.216,115.952,128,104,128
			c-13.232,0-24-10.768-24-24H64c0,19.312,13.768,35.472,32,39.192V160h16v-16.808c18.232-3.72,32-19.872,32-39.192
			C144,101.488,142.816,99.112,140.8,97.6z"/>
	</g>
</g>
<g>
</g>
<g>
</g>
<g>
</g>
<g>
</g>
<g>
</g>
<g>
</g>
<g>
</g>
<g>
</g>
<g>
</g>
<g>
</g>
<g>
</g>
<g>
</g>
<g>
</g>
<g>
</g>
<g>
</g>
</svg>
