<?xml version="1.0" encoding="iso-8859-1"?>
<!-- Generator: Adobe Illustrator 19.0.0, SVG Export Plug-In . SVG Version: 6.00 Build 0)  -->
<svg version="1.1" id="Capa_1" xmlns="http://www.w3.org/2000/svg" xmlns:xlink="http://www.w3.org/1999/xlink" x="0px" y="0px"
	 viewBox="0 0 512.002 512.002" style="enable-background:new 0 0 512.002 512.002;" xml:space="preserve">
<g>
	<g>
		<path d="M237.578,144.62c-2.43-2.351-6.282-2.956-9.357-1.666c-6.117,2.568-8.163,12.689-2.309,16.642
			c0.038,0.029,0.079,0.053,0.117,0.082c0.115,0.074,0.212,0.162,0.332,0.232c0.026,0.015,0.051,0.024,0.077,0.038
			c1.638,1.092,3.604,1.676,5.597,1.488c3.82-0.36,6.067-3.358,7.143-6.79C240.271,151.162,240.378,147.329,237.578,144.62z"/>
	</g>
</g>
<g>
	<g>
		<path d="M291.938,132.652c-3.348,1.14-5.528,4.219-5.514,7.758c0,0.007,0.001,0.013,0.001,0.02
			c-0.586,1.752-0.569,3.653,0.433,5.38c1.78,3.068,5.803,4.154,9.099,3.58c3.167-0.552,5.82-2.847,6.772-5.933
			C304.764,136.859,298.666,130.361,291.938,132.652z"/>
	</g>
</g>
<g>
	<g>
		<path d="M427.047,388.716c-1.957-8.201-6.773-16.12-10.421-23.653c-3.261-6.734-5.492-13.975-8.682-20.711
			c3.09-5.692,3.234-14.214,2.954-20.04c-0.36-7.475-1.935-15.695-5.74-22.234c-2.638-4.535-7.943-8.214-13.117-6.742
			c-0.379-2.352-1.343-4.646-2.216-7.051c-1.847-5.09-3.672-10.188-5.55-15.267c-1.769-4.783-3.573-9.554-5.36-14.331
			c-1.479-3.952-2.643-8.488-5.048-12.01c-4.549-6.664-12.538-5.763-19.391-3.934c-4.373,1.167-8.629,2.817-12.694,4.802
			c-2.306,1.126-4.454,2.091-5.832,3.731c-1.382-1.878-2.95-3.783-5.136-4.519c0.485-1.56,0.893-3.082,1.235-4.507
			c1.26-5.258,1.514-10.529,1.566-15.91c0.062-6.417,2.927-10.664,5.088-16.459c2.105-5.646,0.765-10.864,0.328-16.64
			c-0.483-6.38,2.377-11.816,3.598-17.922c1.305-6.527,0.108-16.562-5.464-21.36c1.149-2.169,1.804-4.666,2.138-6.929
			c0.76-5.154,0.134-10.494-0.759-15.594c-0.392-2.238-0.875-4.484-1.543-6.662c2.204-0.273,4.381-0.694,6.429-1.126
			c10.163-2.146,22.612-6.937,29.237-15.361c6.544-8.32,3.81-19.8-3.582-26.622c-8.299-7.659-20.905-10.751-31.619-13.177
			c-5.17-1.17-10.411-2.067-15.683-2.742c-1.956-3.978-6.3-7.419-9.378-9.822c-2.322-1.813-4.823-3.354-7.445-4.645
			c-1.258-5.996-4.688-11.314-7.968-16.555c-4.146-6.626-8.832-13.059-14.117-18.829c-10.04-10.96-25.372-19.766-40.489-14.151
			c-6.329,2.351-11.397,6.766-17.314,9.872c-7.371,3.869-13.763,1.481-21.234-0.747c-6.837-2.039-13.717-2.707-20.312,0.513
			c-6.62,3.231-11.373,9.349-14.543,15.843c-3.934,8.059-6.736,16.828-9.478,25.348c-2.931,9.104-5.934,18.208-6.25,27.79
			c-6.857,5.485-12.542,12.815-11.691,21.043c-14.604,6.951-28.825,15.877-38.921,28.016c-7.131,8.575-11.398,20.817-3.341,30.322
			c6.628,7.819,18.483,10.251,28.23,10.807c1.054,0.06,2.111,0.073,3.163,0.034c-2.315,4.943-3.057,10.675-1.735,15.983
			c1.601,6.426,6.626,11.01,13.375,11.286c5.647,0.231,10.465-2.403,14.813-5.677c1.728,2.837,2.468,6.944,4.392,9.379
			c2.558,3.236,6.263,4.829,10.186,4.769c-0.199,6.442,1.069,12.849,4.97,17.901c-5.94,0.057-12.176,3.591-16.892,8.386
			c-3.876,3.941-8.003,9.664-8.368,15.369c-0.079,1.233,0.036,2.38,0.287,3.465c-6.446,3.191-12.09,8.009-17.518,12.653
			c-6.261,5.357-12.361,10.94-18.124,16.832c-10.833,11.075-22.521,23.421-28.664,37.859c-2.32,5.453-4.84,13.652-0.435,18.738
			c3.57,4.121,8.442,3.647,12.985,2.124c-1.718,3.315-3.03,6.927-4.084,10.613c-6.269,21.922-5.387,50.554,18.979,60.723
			c7.32,3.055,15.209,3.845,23.045,3.376c-3.908,10.897-6.088,22.263-7.659,33.757c-0.856,6.264-1.552,12.547-1.97,18.856
			c-0.377,5.692-0.999,11.705,0.484,17.298c2.597,9.791,11.686,15.162,20.765,18.023c12.174,3.835,25.434,4.741,38.069,6.042
			c26.493,2.728,53.141,3.936,79.772,3.61c13.314-0.163,26.617-0.729,39.897-1.688c12.54-0.906,25.314-1.708,37.617-4.431
			c5.836-1.291,12.53-2.848,16.9-7.235c3.957-3.972,5.523-9.508,6.138-14.928c1.213-10.686,0.586-23.083-2.539-33.87
			c0.896,0.161,1.795,0.29,2.693,0.364c8.35,0.685,12.835-7.274,16.906-13.359c2.52-3.766,4.806-7.685,6.843-11.732
			c1.241-2.466,2.779-5.161,3.548-7.945c3.788-0.447,7.203-2.397,10.607-4.127c4.184-2.127,8.272-4.501,12.13-7.18
			C423.988,401.734,428.88,396.396,427.047,388.716z M391.045,306.99c0.181-0.464,0.333-0.961,0.447-1.47
			c2.073-2.117,3.885-3.047,6.266,0.101c1.553,2.054,2.349,4.961,3.069,7.388c1.653,5.573,2.145,11.381,1.649,17.167
			c-0.251,2.932-0.802,5.942-1.7,8.752c-1.105,3.458-3.684,3.423-6.809,2.993c-7.1-0.975-3.065-8.595-4.317-13.552
			c-0.508-2.014-1.592-3.776-2.967-5.31c-1.426-1.591-3.547-2.666-3.847-4.875C382.314,314.337,389.574,310.769,391.045,306.99z
			 M333.168,180.225c-1.624,4.971-2.354,9.493-1.958,14.719c0.453,5.991,0.153,10.197-2.564,15.64
			c-2.039,4.084-3.503,7.931-3.879,12.519c-0.42,5.13-0.011,10.157-1.1,15.241c-0.999,4.665-2.652,9.068-4.885,13.277
			c-1.093,2.06-2.268,4.133-3.267,6.274c-2.575-2.092-5.36-5.404-6.866-6.834c-1.499-1.424-4.195-1.655-5.665,0
			c-3.214,3.619-8.044,7.62-10.379,11.867c-0.264,0.481-0.484,0.754-0.635,0.918c-0.886-0.759-1.722-1.831-2.458-2.513
			c-1.941-1.801-3.834-3.94-6.018-5.443c-6.857-4.719-13.158,3.509-17.61,9.434c-1.995-1.849-3.982-3.709-6.024-5.499
			c-1.972-1.728-3.882-3.012-6.61-2.653c-4.741,0.625-8.617,6.395-11.262,11.203c-1.306-3.658-5.318-4.982-8.152-7.383
			c-3.576-3.029-5.515-6.744-7.872-10.674c-2.147-3.581-5.07-6.291-9.188-7.391c-4.483-1.198-7.537-0.715-10.137-5.044
			c-3.779-6.292-6.198-12.716-14.05-14.614c-4.954-1.197-8.381-2.299-11.178-6.907c-1.98-3.262-3.26-7.243-4.538-11.044
			c3.478-1.315,6.561-3.821,8.37-7.071c2.567-0.061,5.124-0.294,7.612,1.186c4.107,2.443,4.541,7.887,8.591,10.471
			c1.221,0.779,2.752,0.64,3.983,0c2.555-1.329,4.035-2.449,6.993-2.681c1.975-0.155,3.554-0.351,5.404-1.141
			c0.051-0.022,0.089-0.056,0.136-0.082c0.613,1.523,1.406,2.997,2.457,4.398c4.158,5.541,10.763,8.376,17.525,9.074
			c15.18,1.568,27.135-9.221,34.776-21.279c9.95,7.454,22.992,12.437,34.902,6.588c11.045-5.424,15.136-17.192,15.653-28.726
			c1.497-0.802,2.965-1.725,4.439-2.534c1.699-0.934,2.566-1.996,2.703-4.032c0.168-2.487-1.271-4.665-1.716-7.036
			c-0.189-1.007-0.054-2.012,0.109-3.023c1.329,0.06,2.683-0.205,3.955-0.857c0.087-0.045,0.166-0.098,0.251-0.145
			c1.023,2.455,2.097,4.893,2.473,7.584C336.184,171.005,334.698,175.54,333.168,180.225z M273.293,316.303
			c-0.766-14.072-1.33-28.485-3.967-42.361c1.863-2.012,3.715-4.029,5.516-6.097c0.576-0.661,2.555-3.608,3.907-5.138
			c0.008,1.661,0.215,3.355,0.306,5.027c0.241,4.45,0.56,8.897,0.806,13.347c0.493,8.906,0.972,17.812,1.329,26.725
			c0.702,17.516,1.165,35.043,1.617,52.567c0.865,33.531,1.442,67.049,4.299,100.479c-0.186-0.123-0.336-0.22-0.429-0.272
			c-2.93-1.645-5.774-3.435-8.524-5.366c-1.431-1.005-2.828-2.06-4.375-2.652c-0.171-1.687-0.462-3.383-0.627-5.122
			c-0.385-4.069-0.569-8.147-0.65-12.232c-0.15-7.576,0.034-15.143,0.353-22.712c0.682-16.178,1.479-32.319,1.563-48.515
			C274.5,348.078,274.157,332.182,273.293,316.303z M287.019,360.372c-0.311-17.527-0.603-35.049-1.266-52.567
			c-0.337-8.911-0.704-17.828-1.308-26.725c-0.302-4.449-0.582-8.909-1.019-13.347c-0.046-0.463-0.082-0.932-0.116-1.404
			c0.303,0.322,0.521,0.549,0.587,0.618c1.536,1.608,3.092,3.77,5.043,4.906c0.292,0.17,0.581,0.304,0.868,0.422
			c0.574,13.49,2.288,27.021,3.181,40.5c1.031,15.549,1.795,31.114,2.727,46.669c0.93,15.529,2.068,31.044,3.808,46.506
			c0.806,7.163,1.73,14.315,2.816,21.441c0.562,3.686,1.189,7.363,1.861,11.031c0.447,2.439,0.73,5.071,1.41,7.527
			c-1.187,0.914-2.343,2.167-3.541,3.718c-2.363,3.06-4.725,6.119-7.088,9.179c-0.534,0.691-2.228,3.643-3.247,4.428
			C288.671,429.074,287.629,394.691,287.019,360.372z M264.265,437.094c0.132,4.965-0.228,11.951,1.308,17.46
			c-1.574,1.22-3.041,2.647-4.348,3.676c-3.271,2.576-6.451,5.605-9.928,7.886c-0.628,0.412-1.149,0.687-1.616,0.847
			c-0.06-2.103-0.247-4.212-0.303-6.326c-0.119-4.448-0.065-8.899,0.095-13.345c0.32-8.915,1.093-17.805,1.858-26.69
			c1.527-17.754,2.712-35.552,3.591-53.349c0.879-17.81,1.617-35.635,1.863-53.466c0.123-8.912,0.238-17.837,0.052-26.748
			c-0.139-6.705-0.009-13.665-0.615-20.423c0.766,0.705,1.472,1.618,2.195,2.324c1.726,1.685,3.412,3.41,5.116,5.118
			c0.031,0.031,0.07,0.053,0.102,0.083c0.307,14.355,2.114,28.754,2.825,43.114c0.801,16.192,1.14,32.422,0.866,48.633
			c-0.268,15.881-1.193,31.711-2.263,47.555C264.531,421.309,264.055,429.207,264.265,437.094z M244.343,464.869
			c-1.272-0.843-2.543-1.687-3.814-2.53c-3.599-2.387-7.218-4.521-11.045-6.498c2.268-6.431,2.807-13.615,3.781-20.295
			c4.307-29.54,5.381-60.018,8.814-89.889c2.038-17.736,4.212-35.528,5.527-53.334c0.432-5.847,0.483-12.482-1.942-18.02
			c1.101-1.189,2.206-2.373,3.27-3.595c0.868-0.998,2.612-4.017,3.965-4.88c-0.415,7.65,0.068,15.512,0.072,23.123
			c0.005,8.917,0.08,17.831-0.015,26.748c-0.186,17.518-0.621,35.019-1.631,52.509c-1.012,17.506-2.529,34.947-4.251,52.395
			c-0.877,8.883-1.763,17.771-2.196,26.69C244.619,452.625,243.898,458.995,244.343,464.869z M224.961,265.391
			c-6.797-0.482-13.752-0.719-20.579-0.286c-0.66-4.98-4.068-10.625-5.778-14.58c-2.689-6.223-5.417-12.932-9.173-18.645
			c1.325,0.32,2.603,0.746,3.637,1.686c2.807,2.551,3.867,6.983,5.822,10.145c2.072,3.354,4.762,6.066,8.542,7.388
			c2.424,0.847,5.165,0.701,7.531,1.64c2.389,0.948,3.356,3.194,4.607,5.325C220.733,260.047,222.64,262.794,224.961,265.391z
			 M185.652,130.481c9.463-4.4,19.156-8.294,29.211-11.403c22.109-6.834,45.72-11.309,68.938-10.721
			c9.124,0.231,18.542,1.567,26.776,5.636c-2.982,4.934-1.15,11.941,2.416,16.577c3.306,4.298,6.456,6.933,6.789,12.717
			c0.257,4.466-0.284,9.184,2.729,12.896c-0.6,0.72-1.045,1.634-1.278,2.73c-0.307,1.441-0.226,2.949,0.058,4.385
			c0.335,1.697,1.44,3.49,1.944,5.232c-0.244,0.156-0.495,0.309-0.745,0.463c-1.353-1.562-4.069-1.957-5.143,0.313
			c-1.824,3.854-5.376,6.374-9.731,6.397c-5.217,0.027-7.733-3.874-10.767-7.443c-3.289-3.869-8.95-8.174-13.763-7.04
			c0.005-0.853-0.066-1.725-0.22-2.611c-1.135-6.54-6.672-11.877-13.188-12.964c-5.015-0.836-13.582,1.123-13.622,7.503
			c-0.003,0.466,0.416,0.932,0.902,0.902c3.292-0.203,6.218-2.238,9.573-2.137c4.401,0.133,8.69,3.807,8.8,8.369
			c0.225,9.293-15.708,5.072-21.31,6.325c-1.006,0.225-1.456,1.488-0.951,2.338c0.551,0.929,1.271,1.71,2.092,2.387
			c-4.03,1.927-7.641,5.096-10.185,8.331c-2.908,3.698-4.707,8.969-9.479,10.646c-4.889,1.718-11.813-0.355-15.219-4.133
			c-1.408-1.561-3.823-0.249-3.918,1.623c-0.21,4.149-0.441,8.396,0.119,12.456c-3.482-2.539-8.559-0.596-12.564,1.483
			c-1.614-1.94-2.743-4.894-4.631-6.48c-2.099-1.762-4.674-2.888-7.362-3.373c-1.451-0.262-3.27-0.327-5.036-0.066
			c-0.122-3.667-2.025-6.916-4.298-10.251c-4.683-6.873,1.461-11.855,5.788-16.952c3.741-4.406,6.391-9.245,6.631-15.144
			C195.276,142.931,191.514,134.651,185.652,130.481z M315.352,116.762c4.044,2.782,7.229,6.509,12.182,7.735
			c0.387,0.096,0.786,0.154,1.181,0.225c0.189,1.109,0.459,2.269,0.801,3.642c0.922,3.701,1.591,7.453,1.812,11.265
			c0.142,2.437,0.831,8.414-1.297,10.184c-2.557,2.127-2.051-5.854-2.181-7.327c-0.515-5.849-2.71-10.087-6.69-14.307
			c-1.854-1.966-4.03-3.688-5.085-6.242C315.401,120.304,315.253,118.537,315.352,116.762z M316.395,179.629
			c-1.22,7.309-4.596,14.211-11.405,17.941c-9.763,5.349-23.475-0.115-30.674-7.506c-1.686-1.731-4.565-1.249-5.786,0.746
			c-6.148,10.043-15.365,20.709-28.058,21.096c-5.243,0.16-10.648-1.404-14.606-4.958c-3.8-3.413-5.087-8.127-5.238-12.961
			c1.884,2.047,4.054,3.737,6.981,4.631c5.078,1.551,10.709,0.559,14.982-2.58c4.223-3.102,5.695-8.061,8.541-12.227
			c3.323-4.865,7.329-7.555,12.466-9.326c3.29,0.363,6.681,0.068,9.33-0.597c3.539-0.889,6.335-2.915,8.091-5.617
			c1.831,0.476,3.913,0.85,5.529,1.614c2.357,1.114,4.028,3.208,5.856,4.991c3.27,3.19,6.734,6.223,11.325,7.157
			C308.099,182.922,312.668,181.943,316.395,179.629z M172.974,40.271c2.381-6.278,4.958-13.041,10.01-17.7
			c5.797-5.347,12.106-4.912,19.189-2.732c5.978,1.84,11.892,3.875,18.234,2.926c5.864-0.877,10.936-3.983,15.866-7.092
			c5.354-3.376,10.631-6.576,17.215-6.154c7.432,0.476,14.038,4.617,19.309,9.621c5.658,5.372,10.402,11.736,14.648,18.256
			c2.083,3.199,3.829,6.668,5.714,10.031c-13.368-2.42-27.171-0.006-40.458,1.863c-30.108,4.234-60.795,10.479-88.269,24.005
			c-1.156,0.569-2.366,1.215-3.597,1.924C165.704,63.971,168.651,51.67,172.974,40.271z M158.464,84.931
			c6.331-4.686,13.889-7.743,21.183-10.574c16.017-6.217,32.783-10.23,49.657-13.322c16.423-3.009,33.555-6.109,50.292-6.278
			c7.67-0.078,15.595,0.796,22.352,4.69c2.454,1.414,4.656,3.152,6.691,5.089c-2.571-0.146-5.142-0.252-7.71-0.298
			c-25.594-0.461-51.033,4.052-75.809,10.11c-22.847,5.586-45.952,11.624-67.857,20.273c-3.052,1.205-6.147,2.489-9.249,3.844
			C150.243,93.187,153.483,88.618,158.464,84.931z M111.057,157.861c-10.742-5.333-7.988-15.861-1.24-23.547
			c13.176-15.007,32.917-24.808,51.236-31.896c19.182-7.421,39.216-12.746,59.117-17.845c22.94-5.877,46.295-10.704,70.03-11.5
			c21.68-0.727,46.146,1.165,65.897,10.978c4.52,2.245,8.817,5.335,10.454,10.33c1.879,5.73-1.66,9.567-6.161,12.571
			c-4.415,2.947-9.306,5.218-14.368,6.793c-4.861,1.512-11.815,3.732-16.877,2.095c-4.072-1.317-7.383-5.558-11.052-7.78
			c-4.146-2.511-8.756-4.374-13.419-5.672c-8.996-2.505-18.522-3.042-27.815-2.774c-23.151,0.668-46.365,5.042-68.223,12.653
			c-13.739,4.784-27.194,10.626-39.717,18.011c-4.258,1.979-8.274,4.423-12.193,7.569c-4.24,3.405-8.371,7.952-11.739,12.259
			c-2.528,3.232-4.17,7.034-7.672,9.431C130.601,164.132,117.843,161.23,111.057,157.861z M143.831,188.935
			c-4.923,0.695-7.174-3.012-7.513-7.45c-0.365-4.769,1.886-9.753,5.119-13.768c0.598-0.346,1.181-0.728,1.747-1.148
			c0.025-0.019,0.047-0.041,0.073-0.06c1.795,3.116,4.176,6.121,4.875,7.284c1.852,3.083,3.503,6.28,5.101,9.499
			C150.524,185.725,147.498,188.417,143.831,188.935z M171.968,197.683c-4.011-0.101-4.542-4.699-5.761-7.696
			c-0.98-2.41-2.145-4.434-3.813-6.158c-0.541-4.619-3.882-9.899-5.738-13.126c-1.449-2.518-4.028-7.761-7.218-10.806
			c1.742-2.368,3.363-4.846,5.184-7.087c4.061-4.997,8.876-9.719,14.113-13.87c2.146-1.141,4.302-2.256,6.466-3.357
			c3.214,1.898,6.659,2.91,8.886,6.359c2.687,4.162,2.497,9.539-0.027,13.708c-4.526,7.477-13.055,12.479-12.14,22.396
			c0.371,4.022,2.741,6.909,4.957,10.092c1.42,2.039,2.386,3.911,1.009,6.233C176.753,196.285,174.184,197.738,171.968,197.683z
			 M162.972,242.552c2.576-3.94,6.41-7.77,10.847-9.528c6.864-2.72,9.309,4.199,11.756,9.231c2.519,5.181,4.849,10.451,6.951,15.815
			c1.024,2.613,1.749,5.784,3.017,8.516c-3.665,1.419-6.506,4.035-8.316,8.055c-1.672,3.712-2.568,7.852-3.184,12.069
			c-2.378-6.694-5.837-12.928-9.884-18.902c-2.809-4.147-5.883-8.127-9.162-11.913c-1.416-1.635-3.529-3.389-4.298-5.472
			C159.678,247.654,161.474,244.844,162.972,242.552z M188.178,421.421c-3.779-0.095-7.556-0.192-11.336-0.24
			c-2.332-0.03-4.486-0.265-6.572,0.24c0.406-3.48,0.816-7.002,1.06-10.51c5.732,2.376,13.136,2.149,19.016,2.539
			c4.077,0.27,8.151,0.423,12.237,0.437c2.913,0.011,6.158,0.311,9.112-0.206c-0.372,2.795-0.732,5.592-1.125,8.384
			C203.184,421.354,195.58,421.608,188.178,421.421z M210.061,426.11c-0.378,2.759-1.063,5.242-3.854,6.767
			c-4.12,2.25-9.266,2.961-13.882,3.055c-4.22,0.086-8.426-0.38-12.577-1.11c-3.475-0.611-7.081-1.863-10.648-2.012
			c0.152-1.59,0.305-3.18,0.452-4.771c0.117-1.264,0.255-2.543,0.398-3.825c1.863,0.619,3.804,0.565,5.946,0.667
			c4.093,0.196,8.186,0.348,12.281,0.494C195.411,425.633,202.809,426.324,210.061,426.11z M203.524,409.037
			c-4.078,0.015-8.163-0.051-12.238-0.202c-6.233-0.23-13.465-1.979-19.791-1.008c0.063-1.764,0.075-3.522-0.003-5.263
			c3.358-2.179,6.866-4.064,10.85-4.481c6.459-0.675,11.088,5.309,17.738,2.537c0.329-0.137,0.648-0.289,0.96-0.453
			c1.139,0.089,2.282,0.142,3.405,0.203c2.932,0.158,6.335,0.737,9.017-0.487c-0.374,3.056-0.752,6.112-1.146,9.165
			C209.451,408.623,206.4,409.026,203.524,409.037z M205.3,396.479c1.865-2.499,2.902-5.641,2.89-8.781
			c-0.002-0.568-0.033-1.23-0.106-1.885c0.081,0.009,0.159,0.018,0.241,0.026c2.211,0.225,4.477,0.621,6.715,0.629
			c-0.404,3.507-0.802,7.014-1.225,10.519C211.273,395.844,208.131,396.411,205.3,396.479z M208.92,381.744
			c-0.587-0.034-1.153-0.065-1.708-0.084c0.035-0.135,0.077-0.292,0.13-0.484c0.265-0.963,1.346-2.148,1.767-3.139
			c0.396-0.931,0.686-1.857,0.903-2.808c1.072,0.188,2.167,0.282,3.312,0.333c0.949,0.042,1.971,0.121,2.945,0.04
			c-0.243,2.19-0.479,4.38-0.727,6.57C213.371,381.808,211.076,381.869,208.92,381.744z M214.262,371.426
			c-1.277,0.017-2.545-0.048-3.812-0.074c0.017-3.182-0.8-6.232-2.369-8.926c1.697,0.08,3.395,0.096,5.132,0.049
			c1.606-0.044,3.129-0.006,4.543-0.373c-0.123,1.128-0.247,2.256-0.369,3.383c-0.214,1.978-0.439,3.955-0.657,5.933
			C215.956,371.357,215.139,371.415,214.262,371.426z M211.99,357.746c-1.031,0.07-2.045,0.18-3.054,0.306
			c1.449-3.723,1.825-7.633,0.004-11.063c0.664,0.014,1.328,0.024,1.991,0.035c2.866,0.05,5.681,0.076,8.486-0.209
			c-0.389,3.64-0.786,7.279-1.184,10.916C216.26,357.199,214.044,357.606,211.99,357.746z M210.931,342.486
			c-1.939,0.045-3.903,0.056-5.805,0.327c-2.69-1.757-5.852-1.874-9.047-1.273c-1.684,0.317-5.082,1.776-6.663,0.67
			c-1.871-1.308-1.052-5.999-1.203-7.854c-0.065-0.804-0.199-1.531-0.386-2.191c5,0.821,10.534,0.589,15.116,0.877
			c3.668,0.23,7.335,0.433,11.01,0.514c2.23,0.049,4.641,0.399,6.82-0.01c-0.296,3.05-0.603,6.099-0.921,9.147
			C216.901,342.375,213.945,342.417,210.931,342.486z M214.867,329.222c-3.717-0.066-7.426-0.251-11.136-0.48
			c-5.783-0.358-12.983-1.768-19.036-0.764c-0.028-0.015-0.054-0.036-0.083-0.051c0.992-3.354,1.794-6.738,2.493-10.145
			c5.258,1.351,11.851,0.346,16.847,0.46c5.694,0.13,12.183,1.116,18.107,0.656c-0.274,3.492-0.574,6.982-0.897,10.472
			C219.179,328.949,217.059,329.261,214.867,329.222z M203.953,313.939c-4.759-0.073-10.979-1.072-16.102,0.003
			c0.631-3.414,1.192-6.852,1.76-10.3c5.306,1.445,11.192,0.982,16.63,1.072c5.27,0.088,11.052,0.713,16.51,0.389
			c0.081,1.343,0.069,2.766-0.022,4.274c-0.101,1.674-0.235,3.347-0.353,5.021C216.431,313.424,209.658,314.026,203.953,313.939z
			 M207.197,300.439c-5.495-0.094-11.608-0.858-17.103,0.285c0.567-3.41,1.125-6.822,1.686-10.232
			c6.803,0.996,13.818,0.469,20.526,2.066c5.465,1.301,8.307,4.021,9.598,7.858C217.015,300.136,211.908,300.52,207.197,300.439z
			 M93.53,329.84c-0.023-3.604,1.998-7.655,3.636-10.712c6.845-12.767,16.972-23.551,26.906-33.951
			c5.084-5.323,10.313-10.496,15.746-15.463c4.762-4.353,9.875-8.461,14.213-13.258c1.363,1.986,3.092,3.802,4.784,5.62
			c9.543,10.255,16.144,22.33,23.282,34.253c0.204,0.341,0.455,0.587,0.728,0.767c-0.122,1.046-0.251,2.079-0.396,3.092
			c-1.302,9.082-2.763,18.028-2.931,27.166c-2.064,0.404-4.2,1.445-6.057,3.02c-5.054,4.288-7.136,10.813-7.925,17.118
			c-0.645,5.155-1.11,10.736-7.223,11.953c-4.644,0.925-12.938,0.255-12.177-6.168c0.465-3.927,2.63-7.497,3.608-11.347
			c6.521,0.394,13.735-7.231,17.061-11.735c5.308-7.188,8.308-17.441,6.298-26.312c-0.355-1.569-2.37-1.242-2.865,0
			c-2.947,7.388-4.993,14.798-10.322,20.996c-2.131,2.478-4.589,4.71-7.385,6.413c-0.374,0.228-0.761,0.443-1.152,0.653
			c-1.832-4.558-7.545-6.545-12.153-7.76c-5.961-1.572-12.182-1.643-18.248-0.721c-7.088,1.077-13.735,3.583-20.279,6.429
			C98.374,330.897,93.557,334.022,93.53,329.84z M111.752,399.815c-8.702-6.55-11.704-17.863-11.409-28.287
			c0.285-10.075,2.639-23.411,8.746-31.766c6.033-8.252,19.322-9.635,28.532-6.513c5.669,1.922,4.283,6.17,2.571,10.659
			c-1.436,3.766-2.998,7.571-2.667,11.691c0.814,10.133,11.872,13.431,20.487,12.413c4.652-0.55,9.432-2.325,12.307-6.215
			c5.556-7.519-0.096-17.784,7.601-24.95c0.74-0.728,1.58-1.305,2.508-1.75c0.275,0.937-0.029,4.413,0.002,5.038
			c0.117,2.386,0.394,4.697,1.981,6.604c2.723,3.272,7.24,3.353,11.078,2.422c2.996-0.728,7.629-2.905,8.408,1.433
			c0.571,3.181-1.885,6.411-3.499,8.915c-0.987,1.53-0.684,3.971,0.672,5.206c3.948,3.597,3.893,8.068,1.32,12.399
			c-0.948,1.596-1.623,2.626-1.571,4.591c0.073,2.713,1.992,4.735,1.35,7.533c-1.607,7.007-9.115,1.993-13.621,1.438
			c-4.858-0.598-9.521,0.701-13.943,2.645c-4.731,2.08-8.939,5.115-13.545,7.431c-5.642,2.837-11.937,4.252-18.195,4.89
			C131.024,406.643,119.945,405.982,111.752,399.815z M183.782,482.485c-0.358,4.427-0.715,8.871-0.954,13.305
			c-0.059,1.103-0.108,2.133-0.056,3.106c-6.122-0.603-12.232-1.325-18.289-2.279c-8.509-1.341-20.611-3.126-25.825-10.978
			c-3.346-5.039-2.282-12.018-1.965-17.725c0.365-6.562,0.892-13.117,1.65-19.645c1.338-11.521,3.45-22.93,4.987-34.422
			c1.04-0.134,2.078-0.281,3.109-0.449c6.091-0.994,12.024-2.685,17.381-5.8c-1.063,5.191-1.563,10.56-2.241,15.715
			c-1.082,8.221-2.607,16.968-2.529,25.272c0.07,7.335,5.65,9.863,11.794,11.801c4.996,1.575,10.069,2.897,15.195,3.974
			C183.796,469.796,184.218,477.101,183.782,482.485z M208.326,481.462c-0.408,6.28-1.165,13.029-0.822,19.443
			c-2.533-0.169-5.065-0.346-7.595-0.543c-3.373-0.262-6.753-0.532-10.135-0.824c0.131-0.58,0.231-1.191,0.305-1.848
			c0.498-4.404,0.714-8.884,1.033-13.305c0.395-5.458,1.994-12.954,0.742-18.917c0.795,0.137,1.59,0.272,2.388,0.397
			c4.814,0.754,10.245,1.797,15.431,1.95C208.61,472.312,208.588,477.42,208.326,481.462z M209.601,458.517
			c-4.342-0.225-8.678-0.65-12.978-1.291c-8.208-1.223-16.388-3.044-24.289-5.596c-2.424-0.783-4.071-1.036-4.515-3.849
			c-0.31-1.959,0.337-4.512,0.505-6.488c0.019-0.228,0.042-0.456,0.062-0.684c5.691,2.372,13.158,2.822,18.847,3.217
			c7.352,0.51,15.079-0.267,21.793-3.484c6.803-3.26,7.943-8.63,8.723-15.564c1.003-8.923,2.03-17.842,3.076-26.76
			c2.093-17.85,4.03-35.718,5.809-53.602c0.922-9.265,1.817-18.533,2.763-27.796c0.695-6.805,2.194-14.381-0.938-20.822
			c-5.807-11.94-23.468-12.412-35.796-10.812c0.436-2.732,1.007-5.544,2.404-7.828c2.173-3.553,5.659-3.439,9.423-3.55
			c4.883-0.144,9.775-0.075,14.652,0.204c4.46,0.255,8.975,0.585,13.393,1.283c4.84,0.764,5.51,4.427,5.882,8.958
			c0.718,8.743-1.005,17.993-1.867,26.684c-0.937,9.445-1.928,18.884-2.973,28.318c-1.045,9.433-2.144,18.86-3.295,28.281
			c-1.57,12.849-2.342,25.722-3.377,38.584c-0.702,8.719-1.524,17.434-2.797,26.133c-0.636,4.343-1.311,8.681-1.983,13.019
			c-0.52,3.359-0.866,7.155-2.533,10.183C217.421,459.194,213.566,458.722,209.601,458.517z M306.681,462.01
			c-0.397,5.318-0.519,10.658-0.708,15.985c-0.178,5.015-0.349,10.027-0.438,15.045c-0.052,2.881-0.229,5.517,0.69,7.866
			c-12.36,0.828-24.787,1.099-36.956,1.371c-17.924,0.401-35.863,0.099-53.765-0.887c0.34-6.585-0.219-13.367-0.01-19.927
			c0.137-4.308,0.854-9.361,0.401-14c4.414-0.716,8.33-2.579,11.085-6.499c5.208,4.932,10.976,9.887,17.015,13.66
			c6.744,4.215,12.739-1.777,17.875-5.769c1.637-1.272,3.269-2.552,4.903-3.829c1.007-0.787,3.37-3.335,4.528-3.45
			c1.067-0.106,2.753,1.592,3.747,2.271c1.85,1.263,3.741,2.463,5.671,3.599c5.825,3.429,12.38,7.687,17.76,1.424
			c2.546-2.964,4.809-6.227,7.198-9.321c0.451-0.584,0.898-1.172,1.347-1.759C306.877,459.19,306.786,460.603,306.681,462.01z
			 M307.576,404.097c-1.808-15.464-3.058-30.994-4.21-46.519c-1.154-15.556-2.162-31.123-3.449-46.669
			c-1.08-13.037-1.864-26.413-4.492-39.268c0.9-0.566,1.738-1.314,2.499-2.157c2.276-2.52,4.457-5.132,6.618-7.759
			c0.053,6.69,0.935,13.47,1.5,20.051c0.764,8.901,1.565,17.8,2.39,26.695c1.592,17.152,3.38,34.285,5.364,51.396
			c1.935,16.687,3.973,33.363,6.21,50.013c1.191,8.86,2.431,17.714,3.727,26.559c0.648,4.422,1.308,8.843,1.982,13.262
			c0.179,1.173,0.327,2.359,0.489,3.541c-0.332-0.266-0.62-0.496-0.797-0.612c-3.211-2.106-6.405-4.241-9.633-6.32
			c-0.606-0.39-1.181-0.706-1.74-0.98c-0.164-6.038-2.359-12.616-3.28-18.337C309.529,419.383,308.47,411.752,307.576,404.097z
			 M312.711,500.421c0.652-1.924,0.649-4.063,0.669-6.441c0.044-5.33,0.014-10.655-0.036-15.985
			c-0.046-5.014-0.043-10.034-0.256-15.045c-0.115-2.695-0.153-5.446-0.624-8.095c0.088,0.057,0.178,0.116,0.266,0.173
			c4.896,3.219,12.027,10.352,18.463,8.574c1.284-0.355,2.394-1.019,3.403-1.831c-0.438,5.369-0.232,10.911-0.17,15.95
			c0.055,4.454,0.274,8.889,0.596,13.332c0.167,2.298,0.119,4.466,0.582,6.471C328.07,498.834,320.419,499.768,312.711,500.421z
			 M331.871,451.648c-0.717-4.994-2.089-10.078-2.823-14.702c-1.401-8.816-2.749-17.642-4.046-26.474
			c-2.566-17.471-4.937-34.97-7.017-52.506c-2.029-17.112-3.862-34.247-5.5-51.401c-0.849-8.893-1.608-17.792-2.307-26.697
			c-0.453-5.776-0.668-11.719-1.407-17.538c1.508,1.451,3.06,2.833,4.729,3.973c1.111,0.759,2.321,1.26,3.547,1.363
			c0.035,5.364,1.225,10.93,1.991,16.024c1.238,8.234,2.45,16.474,3.732,24.701c2.55,16.372,5.023,32.749,7.018,49.2
			c1.854,15.29,3.099,30.65,5.161,45.915c1.57,11.624,3.13,24.341,7.343,35.598c-1.046,1.204-1.979,2.542-2.914,3.65
			C336.874,445.718,334.389,448.698,331.871,451.648z M358.073,480.111c-0.161,4.102-0.596,9.121-3.967,11.943
			c-2.612,2.186-6.568,3.256-10.33,4.002c-0.017-1.937-0.397-3.934-0.552-5.953c-0.341-4.439-0.631-8.889-0.893-13.334
			c-0.423-7.165-0.063-14.944-1.37-22.114c3.811-4.805,6.925-8.639,13.366-7.654C355.944,458.15,358.521,468.688,358.073,480.111z
			 M364.304,440.224c-3.554-0.891-7.074-1.914-10.552-3.067c-1.118-0.371-2.22-0.776-3.325-1.04
			c-1.292-4.839-2.715-9.651-3.762-14.564c-1.519-7.129-2.657-14.337-3.587-21.564c-1.979-15.375-3.304-30.825-5.276-46.202
			c-2-15.593-4.314-31.146-6.843-46.662c-1.284-7.878-2.781-15.724-4.233-23.572c-1.094-5.915-1.878-12.778-4.261-18.577
			c2.126-2.387,3.571-5.624,5.533-7.997c0.091-0.11,0.172-0.214,0.247-0.313c1.164,14.349,4.117,28.488,6.884,42.626
			c3.164,16.169,6.612,32.278,10.261,48.344c3.65,16.07,7.488,32.097,11.4,48.106c1.956,8.005,3.929,16.006,5.917,24.004
			c1.74,6.999,3.085,14.385,5.201,21.361C366.659,440.938,365.382,440.494,364.304,440.224z M385.114,418.204
			c-1.575,3.327-3.321,6.573-5.221,9.725c-1.753,2.909-3.634,5.746-5.659,8.474c-0.353,0.476-0.77,1.138-1.228,1.81
			c-1.359-6.051-3.293-12.073-4.811-18.011c-2.04-7.983-4.071-15.968-6.077-23.96c-4.088-16.288-8.062-32.607-11.861-48.965
			c-3.725-16.04-7.29-32.121-10.6-48.253c-2.81-13.693-5.048-27.512-8.391-41.074c0.999,1.426,1.842,3.046,2.694,4.5
			c8.957,15.295,14.995,32.488,20.984,49.108c6.226,17.277,11.795,34.78,17.052,52.374c2.674,8.95,5.282,17.92,7.879,26.893
			c1.174,4.054,2.374,8.103,3.488,12.174c1.062,3.882,1.583,7.794,3.6,11.224C386.308,415.499,385.755,416.85,385.114,418.204z
			 M418.089,391.958c-0.232,3.129-3.925,4.971-6.338,6.476c-3.484,2.172-7.092,4.186-10.745,6.059
			c-2.291,1.175-4.697,2.119-6.873,3.428c-0.697-6.01-3.473-12.31-5.089-17.685c-2.69-8.947-5.387-17.893-8.148-26.819
			c-5.334-17.249-10.847-34.452-16.981-51.435c-5.816-16.103-11.798-32.526-19.729-47.732c-1.056-2.024-2.178-4.003-3.377-5.935
			c1.622-0.53,3.136-1.614,4.861-2.487c3.095-1.568,6.325-2.822,9.648-3.812c2.65-0.79,7.276-2.581,9.881-1.137
			c2.608,1.445,3.622,6.724,4.604,9.333c2.919,7.762,5.835,15.523,8.829,23.256c1.983,5.119,3.483,12.409,7.55,16.595
			c-1.029,1.608-1.85,3.386-2.771,5.023c-0.465,0.827-0.974,1.626-1.494,2.415c-0.011,0.009-0.023,0.019-0.035,0.029
			c-2.406,2.025-4.833,3.917-6.076,6.908c-1.184,2.85-0.964,5.901,0.641,8.553c1.726,2.853,5.254,4.535,5.715,8.049
			c0.522,3.989-1.419,7.653-0.133,11.721c0.929,2.939,3.058,4.967,5.823,6.162c4.208,1.818,10.1,2.496,14.589,0.6
			c1.181,11.3,8.338,22.804,12.449,32.709C416.06,385.054,418.316,388.885,418.089,391.958z"/>
	</g>
</g>
<g>
</g>
<g>
</g>
<g>
</g>
<g>
</g>
<g>
</g>
<g>
</g>
<g>
</g>
<g>
</g>
<g>
</g>
<g>
</g>
<g>
</g>
<g>
</g>
<g>
</g>
<g>
</g>
<g>
</g>
</svg>
