<?xml version="1.0" encoding="iso-8859-1"?>
<!-- Generator: Adobe Illustrator 19.0.0, SVG Export Plug-In . SVG Version: 6.00 Build 0)  -->
<svg version="1.1" id="Capa_1" xmlns="http://www.w3.org/2000/svg" xmlns:xlink="http://www.w3.org/1999/xlink" x="0px" y="0px"
	 viewBox="0 0 512.002 512.002" style="enable-background:new 0 0 512.002 512.002;" xml:space="preserve">
<g>
	<g>
		<path d="M509.866,61.727c-1.783-2.502-4.435-4.16-7.467-4.667l-80.876-13.53c-6.246-1.04-12.18,3.185-13.232,9.427l-1.621,9.626
			c-0.754-0.08-1.518-0.133-2.3-0.133c-8.346,0-16.303,4.422-22.408,12.452c-0.022,0.03-0.043,0.061-0.066,0.091
			c-1.054-2.094-2.293-3.97-3.741-5.597c-4.042-4.543-9.415-6.945-15.539-6.945c-7.304,0-15.428,3.655-21.427,12.61
			c-1.214-2.092-2.589-3.966-4.144-5.583c-4.421-4.597-10.016-7.027-16.181-7.027c-6.165,0-11.76,2.43-16.18,7.027
			c-1.555,1.617-2.93,3.491-4.144,5.583c-5.999-8.954-14.124-12.609-21.428-12.609c-6.124,0-11.497,2.401-15.539,6.945
			c-1.446,1.625-2.684,3.499-3.738,5.59c-0.021-0.028-0.042-0.059-0.063-0.087c-6.107-8.028-14.065-12.449-22.409-12.449
			c-1.977,0-5.106,0.297-8.352,1.766l-2.413-12.414c-1.206-6.214-7.234-10.292-13.467-9.093L87.657,66.947l-15.374,2.97
			c-4.066,0.786-6.726,4.719-5.941,8.786c0.786,4.067,4.718,6.728,8.787,5.941l8.018-1.549l7.981,41.057l-71.664,13.843
			l-4.078-20.98c-1.041-5.356,0.068-10.798,3.124-15.322c3.061-4.533,7.708-7.601,13.084-8.64l11.536-2.228
			c4.066-0.786,6.726-4.719,5.941-8.786c-0.786-4.067-4.726-6.727-8.786-5.941L28.75,78.325
			c-9.313,1.799-17.365,7.116-22.671,14.972c-5.3,7.847-7.224,17.286-5.418,26.579l62.387,320.938
			c3.287,16.907,18.176,28.687,34.811,28.686c2.224,0,4.481-0.211,6.744-0.648l132.461-25.587c4.066-0.786,6.726-4.719,5.941-8.786
			c-0.786-4.065-4.708-6.727-8.787-5.941l-66.155,12.778L97.875,80.25l114.667-22.15l70.186,361.067l-16.51,3.189
			c-4.066,0.786-6.726,4.719-5.941,8.786c0.786,4.067,4.715,6.725,8.787,5.941l19.957-3.855c3.018-0.583,5.627-2.307,7.347-4.854
			c1.719-2.545,2.343-5.606,1.757-8.621l-0.295-1.517c0.156-0.081,0.316-0.153,0.469-0.24c2.278,1.223,4.867,1.934,7.585,1.934
			c2.64,0,5.204-0.682,7.433-1.921c2.227,1.217,4.797,1.921,7.548,1.921c2.751,0,5.321-0.704,7.548-1.921
			c2.23,1.239,4.794,1.921,7.434,1.921c2.717,0,5.307-0.711,7.584-1.935c0.993,0.568,2.065,1.007,3.184,1.329l-0.549,3.262
			c-0.51,3.028,0.19,6.073,1.973,8.574c1.783,2.502,4.434,4.16,7.467,4.667l80.875,13.53c0.639,0.106,1.274,0.158,1.901,0.158
			c5.507,0,10.388-3.981,11.332-9.586l3.993-23.723c0.688-4.085-2.065-7.954-6.15-8.641c-4.087-0.683-7.953,2.067-8.64,6.151
			l-3.412,20.269l-73.963-12.374l61.059-362.708l73.963,12.373l-52.262,310.442c-0.688,4.085,2.065,7.954,6.15,8.641
			c4.09,0.686,7.954-2.066,8.641-6.151l52.846-313.906C512.35,67.273,511.649,64.228,509.866,61.727z M22.327,152.719l71.663-13.843
			l2.845,14.634l-71.663,13.843L22.327,152.719z M153.335,444.161l-51.577,9.962c-11.076,2.136-21.836-5.115-23.985-16.172
			l-4.083-21.004l71.664-13.843L153.335,444.161z M141.135,381.398l1.357,6.982l-71.664,13.843l-2.845-14.634l71.664-13.843
			L141.135,381.398z M136.785,359.021l-71.664,13.842l-2.845-14.634l71.664-13.842L136.785,359.021z M131.078,329.663
			l-71.664,13.843l-2.845-14.634l71.664-13.843L131.078,329.663z M125.371,300.304l-71.664,13.843l-2.845-14.634l71.664-13.843
			L125.371,300.304z M119.664,270.945L48,284.787l-2.845-14.634l71.664-13.843L119.664,270.945z M113.957,241.586L42.293,255.43
			l-2.845-14.634l71.664-13.843L113.957,241.586z M108.25,212.227L36.586,226.07l-2.845-14.634l71.663-13.843L108.25,212.227z
			 M99.697,168.234l1.531,7.872l1.314,6.762l-71.663,13.843l-2.845-14.634L99.697,168.234z M232.459,81.956
			c1.402-4.492,3.563-4.507,4.904-4.507c3.549,0,7.266,2.319,10.467,6.526c3.035,3.997,6.976,11.517,8.511,24.62l4.512,39.758
			l21.714,191.368L232.459,81.956z M305.021,404.529l-28.629-252.267l-5.15-45.385c-1.526-13.022-0.204-23.307,3.537-27.512
			c1.178-1.325,2.515-1.915,4.332-1.915c6.762,0,14.414,9.574,15.234,30.584l11.228,296.848
			C305.314,404.803,305.105,404.643,305.021,404.529z M332.395,107.426c0,0.014-0.002,0.028-0.002,0.042l-8.967,237.09
			l-2.282,60.322c-0.129,0.054-0.43,0.054-0.559,0.001l-11.25-297.422c-0.718-18.367,4.069-25.408,6.16-27.583
			c1.591-1.654,3.297-2.424,5.37-2.424c2.072,0,3.778,0.771,5.369,2.424C328.323,82.049,333.104,89.08,332.395,107.426z
			 M336.713,404.524c-0.081,0.114-0.295,0.278-0.558,0.358l11.227-296.839c0.821-21.019,8.473-30.593,15.235-30.593
			c1.817,0,3.154,0.59,4.332,1.915c3.722,4.184,5.047,14.389,3.555,27.343c-0.008,0.066-0.018,0.13-0.026,0.196L336.713,404.524z
			 M357.398,355.26l27.985-246.636c0.009-0.075,0.014-0.146,0.023-0.22c2.425-20.14,11.217-30.758,18.76-30.946L357.398,355.26z"/>
	</g>
</g>
<g>
	<g>
		<path d="M439.448,295.916c-3.449-4.922-8.609-8.206-14.528-9.247c-12.224-2.153-23.908,6.045-26.056,18.264
			c-1.041,5.919,0.286,11.89,3.735,16.811c3.449,4.921,8.609,8.205,14.528,9.246c1.316,0.231,2.635,0.346,3.944,0.346
			c4.578,0,9.04-1.399,12.866-4.081c4.922-3.45,8.205-8.609,9.246-14.528C444.224,306.808,442.897,300.837,439.448,295.916z
			 M428.41,310.128c-0.347,1.973-1.441,3.693-3.082,4.843c-1.641,1.15-3.634,1.591-5.603,1.245
			c-1.973-0.347-3.693-1.441-4.843-3.082c-1.149-1.64-1.592-3.63-1.245-5.604c0.64-3.636,3.812-6.202,7.383-6.202
			c0.43,0,0.865,0.037,1.303,0.114c1.973,0.347,3.693,1.441,4.843,3.082C428.314,306.164,428.757,308.154,428.41,310.128z"/>
	</g>
</g>
<g>
	<g>
		<path d="M450.417,233.529c-3.449-4.921-8.609-8.205-14.528-9.246c-5.92-1.041-11.89,0.286-16.81,3.735
			c-4.922,3.45-8.205,8.609-9.246,14.528s0.286,11.89,3.735,16.811c3.449,4.921,8.609,8.205,14.528,9.246
			c1.313,0.231,2.618,0.342,3.907,0.342c10.711,0.001,20.231-7.699,22.149-18.605C455.193,244.422,453.866,238.451,450.417,233.529z
			 M439.379,247.742c-0.717,4.074-4.615,6.807-8.685,6.088c-1.973-0.347-3.693-1.441-4.843-3.082
			c-1.149-1.64-1.592-3.63-1.245-5.604c0.347-1.973,1.441-3.693,3.082-4.843c1.275-0.894,2.763-1.36,4.289-1.36
			c0.437,0,0.876,0.038,1.314,0.115c1.973,0.347,3.693,1.441,4.843,3.082C439.283,243.779,439.725,245.77,439.379,247.742z"/>
	</g>
</g>
<g>
	<g>
		<path d="M446.857,161.899c-5.919-1.041-11.89,0.286-16.81,3.735c-4.922,3.45-8.205,8.609-9.246,14.528
			c-1.041,5.919,0.286,11.89,3.735,16.811c3.449,4.922,8.609,8.205,14.528,9.246c1.316,0.231,2.635,0.346,3.944,0.346
			c4.578,0,9.04-1.399,12.866-4.082c4.922-3.45,8.205-8.609,9.246-14.528C467.268,175.737,459.075,164.047,446.857,161.899z
			 M450.347,185.357c-0.347,1.973-1.441,3.693-3.082,4.843c-1.641,1.149-3.633,1.592-5.603,1.245
			c-1.973-0.347-3.693-1.441-4.843-3.082c-1.149-1.64-1.592-3.63-1.245-5.603s1.441-3.693,3.082-4.843
			c1.275-0.894,2.763-1.36,4.289-1.36c0.437,0,0.876,0.038,1.314,0.115C448.332,177.388,451.063,181.284,450.347,185.357z"/>
	</g>
</g>
<g>
	<g>
		<path d="M263.706,399.917l-61.6-316.894c-0.789-4.062-4.71-6.719-8.785-5.933l-70.484,13.615
			c-1.954,0.377-3.679,1.517-4.793,3.166c-1.113,1.65-1.526,3.675-1.146,5.629l61.6,316.893c0.696,3.583,3.835,6.07,7.354,6.07
			c0.471,0,0.95-0.045,1.431-0.138l70.485-13.615c1.953-0.376,3.678-1.515,4.791-3.164
			C263.673,403.896,264.086,401.87,263.706,399.917z M191.792,406.177L133.054,104.01l55.757-10.771l58.738,302.169L191.792,406.177
			z"/>
	</g>
</g>
<g>
	<g>
		<path d="M202.42,272.742l-9.512-48.931c-0.788-4.065-4.722-6.719-8.792-5.931c-4.066,0.791-6.722,4.728-5.932,8.794l9.512,48.931
			c0.696,3.583,3.836,6.07,7.354,6.07c0.474,0,0.956-0.045,1.438-0.139C200.554,280.746,203.21,276.809,202.42,272.742z"/>
	</g>
</g>
<g>
</g>
<g>
</g>
<g>
</g>
<g>
</g>
<g>
</g>
<g>
</g>
<g>
</g>
<g>
</g>
<g>
</g>
<g>
</g>
<g>
</g>
<g>
</g>
<g>
</g>
<g>
</g>
<g>
</g>
</svg>
