<?xml version="1.0" encoding="iso-8859-1"?>
<!-- Generator: Adobe Illustrator 19.0.0, SVG Export Plug-In . SVG Version: 6.00 Build 0)  -->
<svg version="1.1" id="Capa_1" xmlns="http://www.w3.org/2000/svg" xmlns:xlink="http://www.w3.org/1999/xlink" x="0px" y="0px"
	 viewBox="0 0 511.999 511.999" style="enable-background:new 0 0 511.999 511.999;" xml:space="preserve">
<g>
	<g>
		<path d="M425.28,217.033c-20.231-15.568-49.36-11.779-64.943,8.471l-11.235,14.636V46.302C349.101,20.771,328.331,0,302.8,0
			c-25.531,0-46.303,20.771-46.303,46.302v61.854c-5.075-1.916-10.568-2.973-16.306-2.973c-12.061,0-23.054,4.639-31.303,12.222
			c-8.249-7.582-19.244-12.222-31.304-12.222c-5.737,0-11.231,1.057-16.306,2.973v-24.87c0-25.531-20.771-46.303-46.303-46.303
			S68.673,57.754,68.673,83.286v231.432c0,41.01,17.699,77.963,45.858,103.625v78.658c0,8.283,6.715,14.998,14.998,14.998h158.715
			c6.997,0,13.065-4.838,14.622-11.661l15.592-68.31l115.277-150.063C449.307,261.732,445.514,232.603,425.28,217.033z
			 M223.886,151.486c0.001-8.992,7.315-16.306,16.306-16.306c8.99,0,16.305,7.314,16.305,16.306v85.755
			c0,8.991-7.314,16.306-16.306,16.306c-8.99,0-16.305-7.314-16.305-16.306V151.486z M161.278,151.486
			c0.001-8.992,7.315-16.306,16.306-16.306c8.991,0,16.306,7.314,16.306,16.306v85.755c0,8.991-7.314,16.306-16.306,16.306
			c-8.992,0-16.306-7.314-16.306-16.306V151.486z M409.957,263.682L292.674,416.357c-1.316,1.714-2.247,3.692-2.729,5.799
			l-13.66,59.847H144.529v-42.741c19.286,10.007,41.173,15.669,64.36,15.669c8.283,0,14.998-6.715,14.998-14.998
			c0-8.283-6.715-14.998-14.998-14.998c-60.774,0-110.217-49.443-110.217-110.216V83.286c0-8.991,7.314-16.306,16.306-16.306
			c8.992,0,16.306,7.314,16.306,16.306V237.24c0,25.531,20.771,46.303,46.303,46.303c12.061,0,23.055-4.64,31.304-12.222
			c8.249,7.582,19.243,12.222,31.304,12.222c25.53,0,46.302-20.771,46.302-46.303V46.302c0-8.991,7.314-16.305,16.306-16.305
			c8.992,0,16.306,7.314,16.306,16.305v238.009c0,6.425,4.093,12.137,10.176,14.202c6.084,2.064,12.809,0.026,16.72-5.069
			l38.12-49.66c5.483-7.125,15.741-8.459,22.866-2.978C414.112,246.289,415.448,256.547,409.957,263.682z"/>
	</g>
</g>
<g>
</g>
<g>
</g>
<g>
</g>
<g>
</g>
<g>
</g>
<g>
</g>
<g>
</g>
<g>
</g>
<g>
</g>
<g>
</g>
<g>
</g>
<g>
</g>
<g>
</g>
<g>
</g>
<g>
</g>
</svg>
