<?xml version="1.0" encoding="iso-8859-1"?>
<!-- Generator: Adobe Illustrator 19.0.0, SVG Export Plug-In . SVG Version: 6.00 Build 0)  -->
<svg version="1.1" id="Capa_1" xmlns="http://www.w3.org/2000/svg" xmlns:xlink="http://www.w3.org/1999/xlink" x="0px" y="0px"
	 viewBox="0 0 480 480" style="enable-background:new 0 0 480 480;" xml:space="preserve">
<g>
	<g>
		<path d="M304,256h-40v-24c0-13.232-10.768-24-24-24h-16c-4.416,0-8,3.576-8,8v44.688L196.688,280H144c-4.416,0-8,3.576-8,8v72
			c0,4.424,3.584,8,8,8h56h104c22.056,0,40-17.944,40-40v-32C344,273.944,326.056,256,304,256z M192,352h-40v-56h40V352z M328,328
			c0,13.232-10.768,24-24,24h-96v-60.688l21.656-21.656C231.16,268.16,232,266.128,232,264v-40h8c4.408,0,8,3.584,8,8v32
			c0,4.424,3.584,8,8,8h48c13.232,0,24,10.768,24,24V328z"/>
	</g>
</g>
<g>
	<g>
		<path d="M480,120V40c0-22.056-17.944-40-40-40H296c-22.056,0-40,17.944-40,40v80c0,2.736,0.28,5.416,0.808,8h-33.616
			c0.528-2.584,0.808-5.264,0.808-8V40c0-22.056-17.944-40-40-40H40C17.944,0,0,17.944,0,40v80c0,22.056,17.944,40,40,40v256H8
			c-4.416,0-8,3.576-8,8c0,30.872,25.12,56,56,56h368c30.88,0,56-25.128,56-56c0-4.424-3.584-8-8-8h-32V160
			C462.056,160,480,142.056,480,120z M210.432,149.784c1.408-1.248,2.696-2.6,3.912-4.032c0.496-0.584,1.024-1.136,1.488-1.752
			h48.328c0.464,0.616,0.992,1.168,1.488,1.752c1.216,1.432,2.504,2.784,3.912,4.032c0.736,0.656,1.496,1.28,2.272,1.872
			c1.104,0.848,2.232,1.64,3.424,2.376c1.256,0.776,2.552,1.48,3.896,2.112c0.8,0.376,1.6,0.736,2.424,1.056
			c1.872,0.736,3.8,1.352,5.776,1.8c0.52,0.112,1.048,0.192,1.576,0.288c2.32,0.424,4.68,0.712,7.072,0.712h32v16H152v-16h32
			c2.392,0,4.752-0.288,7.064-0.712c0.528-0.096,1.056-0.168,1.576-0.288c1.976-0.448,3.896-1.056,5.776-1.8
			c0.832-0.32,1.624-0.68,2.424-1.056c1.336-0.632,2.632-1.336,3.896-2.112c1.192-0.728,2.32-1.528,3.424-2.376
			C208.936,151.056,209.696,150.44,210.432,149.784z M80,400h320c4.416,0,8-3.576,8-8V184c0-4.424-3.584-8-8-8h-12.688l16-16H424
			v256H56V160h20.688l16,16H80c-4.416,0-8,3.576-8,8v208C72,396.424,75.584,400,80,400z M392,192v192H88V192h20.688l29.656,29.656
			c0.696,0.696,1.512,1.184,2.368,1.576c0.248,0.112,0.488,0.184,0.744,0.264c0.664,0.224,1.344,0.36,2.048,0.4
			c0.168,0.016,0.328,0.104,0.496,0.104c0.096,0,0.192-0.056,0.288-0.056c0.936-0.032,1.872-0.176,2.768-0.552
			c2.992-1.232,4.944-4.16,4.944-7.392v-24h176v24c0,3.232,1.952,6.16,4.936,7.392c0.896,0.376,1.832,0.52,2.768,0.552
			c0.104,0,0.2,0.056,0.296,0.056c0.168,0,0.328-0.088,0.504-0.096c0.696-0.048,1.368-0.176,2.024-0.4
			c0.264-0.088,0.52-0.16,0.768-0.272c0.856-0.392,1.672-0.88,2.36-1.568L371.312,192H392z M16,120V40c0-13.232,10.768-24,24-24h144
			c13.232,0,24,10.768,24,24v80c0,4.336-1.248,8.352-3.264,11.864c-0.024,0.04-0.064,0.072-0.088,0.112
			c-2.104,3.616-5.008,6.488-8.376,8.536c-0.352,0.216-0.72,0.4-1.088,0.592c-1.288,0.696-2.64,1.24-4.032,1.688
			c-0.496,0.16-0.976,0.336-1.488,0.464c-1.832,0.448-3.72,0.744-5.664,0.744h-40c-4.416,0-8,3.576-8,8v32v12.688l-18.344-18.344
			l-32-32C84.16,144.84,82.12,144,80,144H48h-8C26.768,144,16,133.232,16,120z M463.192,432c-3.712,18.232-19.872,32-39.192,32H56
			c-19.32,0-35.48-13.768-39.192-32H48h384H463.192z M432,144h-32c-2.12,0-4.16,0.84-5.656,2.344l-32,32L344,196.688V184v-32
			c0-4.424-3.584-8-8-8h-40c-1.944,0-3.832-0.296-5.664-0.744c-0.512-0.128-0.992-0.304-1.488-0.464
			c-1.392-0.44-2.752-0.992-4.032-1.688c-0.368-0.192-0.736-0.376-1.088-0.592c-3.368-2.056-6.272-4.92-8.376-8.536
			c-0.024-0.04-0.064-0.072-0.088-0.112C273.248,128.352,272,124.336,272,120V40c0-13.232,10.768-24,24-24h144
			c13.232,0,24,10.768,24,24v80c0,13.232-10.768,24-24,24H432z"/>
	</g>
</g>
<g>
	<g>
		<rect x="328" y="72" width="16" height="16"/>
	</g>
</g>
<g>
	<g>
		<rect x="360" y="72" width="16" height="16"/>
	</g>
</g>
<g>
	<g>
		<rect x="392" y="72" width="16" height="16"/>
	</g>
</g>
<g>
	<g>
		<path d="M153.656,54.344c-9.736-9.736-25.576-9.736-35.312,0L112,60.688l-6.344-6.344c-9.736-9.736-25.576-9.736-35.312,0
			c-4.72,4.712-7.32,10.984-7.32,17.656s2.6,12.944,7.32,17.656l36,36c1.56,1.56,3.608,2.344,5.656,2.344
			c2.048,0,4.096-0.784,5.656-2.344l36-36c4.72-4.712,7.32-10.984,7.32-17.656S158.376,59.056,153.656,54.344z M142.344,78.344
			L112,108.688L81.656,78.344C79.96,76.648,79.024,74.4,79.024,72s0.936-4.648,2.632-6.344c1.752-1.752,4.048-2.616,6.344-2.616
			s4.592,0.864,6.344,2.616l12,12c3.128,3.128,8.184,3.128,11.312,0l12-12c3.504-3.488,9.184-3.488,12.688,0
			c1.696,1.696,2.632,3.944,2.632,6.344S144.04,76.648,142.344,78.344z"/>
	</g>
</g>
<g>
</g>
<g>
</g>
<g>
</g>
<g>
</g>
<g>
</g>
<g>
</g>
<g>
</g>
<g>
</g>
<g>
</g>
<g>
</g>
<g>
</g>
<g>
</g>
<g>
</g>
<g>
</g>
<g>
</g>
</svg>
