<?xml version="1.0" encoding="iso-8859-1"?>
<!-- Generator: Adobe Illustrator 16.0.0, SVG Export Plug-In . SVG Version: 6.00 Build 0)  -->
<!DOCTYPE svg PUBLIC "-//W3C//DTD SVG 1.1//EN" "http://www.w3.org/Graphics/SVG/1.1/DTD/svg11.dtd">
<svg version="1.1" id="Capa_1" xmlns="http://www.w3.org/2000/svg" xmlns:xlink="http://www.w3.org/1999/xlink" x="0px" y="0px"
	 width="97.75px" height="97.75px" viewBox="0 0 97.75 97.75" style="enable-background:new 0 0 97.75 97.75;" xml:space="preserve"
	>
<g>
	<g>
		<ellipse cx="48.944" cy="48.719" rx="14.465" ry="14.017"/>
		<path d="M71.333,49.501c0,11.981-10.024,21.692-22.389,21.692s-22.389-9.711-22.389-21.692c0-2.147,0.324-4.221,0.924-6.18h-6.616
			v30.427c0,1.576,1.288,2.863,2.863,2.863h50.159c1.576,0,2.865-1.287,2.865-2.863V43.321h-6.341
			C71.008,45.28,71.333,47.354,71.333,49.501z"/>
		<path d="M65.332,35.11h8.141c1.784,0,3.242-1.458,3.242-3.242v-7.762c0-1.785-1.458-3.243-3.242-3.243h-8.141
			c-1.785,0-3.243,1.458-3.243,3.243v7.762C62.088,33.651,63.547,35.11,65.332,35.11z"/>
		<path d="M48.875,0C21.882,0,0,21.882,0,48.875S21.882,97.75,48.875,97.75S97.75,75.868,97.75,48.875S75.868,0,48.875,0z
			 M75.645,84.891H22.106c-5.087,0-9.246-3.765-9.246-9.244V22.105c0-5.481,4.159-9.245,9.246-9.245h53.539
			c5.086,0,9.246,3.764,9.246,9.245v53.542C84.891,81.126,80.73,84.891,75.645,84.891z"/>
	</g>
</g>
<g>
</g>
<g>
</g>
<g>
</g>
<g>
</g>
<g>
</g>
<g>
</g>
<g>
</g>
<g>
</g>
<g>
</g>
<g>
</g>
<g>
</g>
<g>
</g>
<g>
</g>
<g>
</g>
<g>
</g>
</svg>
