<svg height="512pt" viewBox="0 -6 512.00105 512" width="512pt" xmlns="http://www.w3.org/2000/svg"><path d="m511.8125 73.828125c-.28125-.898437-.851562-1.625-1.570312-2.117187-1.667969-1.75-8.5-10.496094-12.648438-15.808594-4.441406-5.691406-7-8.957032-7.886719-9.910156-8.039062-8.660157-16.765625-16.820313-25.941406-24.25l-2.480469-2.015626c-8.042968-6.554687-17.164062-13.984374-26.832031-18.304687-3.765625-1.683594-7.222656-1.871094-10.269531-.558594-5.65625 2.4375-8.027344 9.21875-10.117188 15.199219-.699218 1.992188-1.355468 3.878906-2.066406 5.421875-16.644531 36.148437-41.839844 72.125-79.292969 113.222656-17.472656 19.175781-35.492187 37.269531-55.542969 57.242188l-8.164062 8.132812c-1.820312-1.105469-3.507812-2.40625-5.023438-3.90625-1.453124-1.433593-3.746093-1.558593-5.34375-.289062-17.871093 14.195312-35.4375 29.242187-52.214843 44.71875-4.25 3.921875-9.160157 8.511719-13.660157 13.410156-1.8125 1.972656-3.820312 4.332031-4.738281 7.394531-1.785156 5.980469 1.304688 11.613282 3.984375 15.371094l-158.976562 158.371094c-.496094.207031-.960938.511718-1.359375.925781-.347657.363281-.605469.777344-.792969 1.214844l-15.375 15.316406-.5.5c-9.699219 9.664063-19.75 23.84375-12.554688 36.519531 3.929688 6.925782 11.65625 9.90625 19.09375 9.90625 2.832032 0 5.625-.433594 8.152344-1.246094 9.210938-2.957031 16.386719-9.925781 22.15625-15.523437 40.761719-39.570313 81.214844-80.792969 120.335938-120.652344 11.800781-12.023437 23.679687-24.125 35.632812-36.253906 2.03125 1.5625 4.667969 2.457031 7.464844 2.457031.765625 0 1.542969-.066406 2.320312-.203125 3.8125-.664062 7.007813-2.71875 9.707032-4.59375 6.523437-4.539062 11.492187-8.785156 15.628906-13.363281.9375-1.039062 1.980469-2.296875 2.472656-4.085938.542969-1.96875.191406-3.792968-.222656-5.316406-.84375-3.113281-2.097656-6.070312-3.722656-8.835937 1.175781-1.179688 2.351562-2.359375 3.53125-3.539063 1.789062 2.179688 4.417968 4.597656 8.113281 4.996094.347656.035156.6875.050781 1.019531.050781 4.199219 0 7.554688-2.742187 9.421875-4.265625 19.464844-15.914062 37.585938-33.703125 53.851563-52.875 1.035156-1.214844 2.59375-3.054687 3.003906-5.632812.582031-3.675782-1.410156-6.453125-2.867188-8.476563-.648437-.90625-1.320312-1.839843-1.53125-2.539062-.058593-.183594-.140624-.347657-.21875-.515625 3.164063-3.011719 6.335938-6.007813 9.511719-9.003906 1.664063 2.5 4.285157 5.109374 8.21875 5.226562h.242188c2.5 0 4.617187-1.105469 5.898437-1.777344 5.558594-2.910156 10.992188-6.1875 16.15625-9.75 5.238282-3.613281 11.027344-8.179687 14.226563-14.628906 3.316406-6.679688 2.929687-14.304688-.730469-19.605469 39.148438-35.113281 85.351562-73.5 139.855469-90.691406.003906 0 .003906-.003906.007812-.003906h.003907c2.125-.671875 3.304687-2.933594 2.632812-5.058594zm-228.957031 123.835937c20.125-20.050781 38.214843-38.21875 55.8125-57.527343 15.667969-17.191407 29.226562-33.515625 40.945312-49.355469.320313.21875.664063.402344 1.054688.523438 14.875 4.574218 27.652343 15.523437 34.550781 29.464843-19.140625 14.363281-36.898438 29.863281-53.398438 44.703125-25.402343 22.851563-50.398437 46.425782-75.03125 70.335938-1.046874-1.769532-2.433593-3.125-3.53125-4.183594-2.75-2.667969-5.777343-5.339844-9.882812-6.199219-5.671875-1.183593-12.035156 1.734375-16.207031 7.429688-3.074219 4.199219-4.617188 9.082031-4.347657 13.742187.324219 5.542969 3.285157 10.917969 7.945313 14.722656-2.15625 2.132813-4.304687 4.269532-6.457031 6.402344-2.949219-4.296875-8.15625-7.152344-13.773438-7.152344-.03125 0-.058594 0-.089844 0-6.417968.03125-12.746093 3.535157-16.933593 9.367188-4.105469 5.722656-6.183594 14.636719-1.5625 21.664062.828125 1.257813 1.792969 2.324219 2.644531 3.261719.425781.46875.832031.925781 1.199219 1.371094-1.5 1.503906-2.988281 3.011719-4.480469 4.519531-2.367188-3.160156-6.25-5.277344-10.574219-5.605468-4.050781-.308594-8.449219.886718-12.714843 3.460937-3.441407 2.074219-5.8125 4.4375-7.246094 7.214844-1.007813 1.953125-1.609375 4.253906-1.835938 7.03125-.523437 6.421875 1.363282 12.019531 5.171875 15.4375-2.121093 2.15625-4.242187 4.3125-6.363281 6.464843-2.914062-3.3125-7.421875-5.382812-12.148438-5.429687-.570312-.003906-1.144531.019531-1.714843.070313-4.25-3.453126-8.410157-7.085938-12.390625-10.839844zm-16.300781 57.949219c-3.300782-2.410156-5.484376-5.984375-5.6875-9.484375-.160157-2.792968.835937-5.816406 2.808593-8.507812 1.890625-2.585938 5.109375-4.917969 8.054688-4.300782 1.996093.417969 3.9375 2.175782 5.914062 4.09375 1.175781 1.136719 2.171875 2.15625 2.496094 3.109376.148437.429687.375.808593.636719 1.148437-4.753906 4.636719-9.496094 9.285156-14.222656 13.941406zm-35.054688 34.886719c-.320312-.367188-.632812-.71875-.9375-1.050781-.71875-.792969-1.394531-1.542969-1.878906-2.277344-2.503906-3.804687-1.039063-9.164063 1.378906-12.53125 2.644531-3.6875 6.640625-5.988281 10.425781-6.007813h.042969c3.433594 0 6.746094 2.167969 7.839844 4.988282-5.644532 5.621094-11.265625 11.25-16.871094 16.878906zm-31.742188 32.058594c-.0625-.058594-.109374-.125-.175781-.183594-1.949219-1.667969-2.921875-4.980469-2.605469-8.863281.136719-1.695313.453126-3 .964844-3.988281.726563-1.414063 2.117188-2.726563 4.242188-4.007813 1.96875-1.1875 4.945312-2.558594 7.9375-2.328125 2.355468.179688 4.507812 1.515625 5.234375 3.253906.03125.070313.078125.132813.113281.203125-5.253906 5.308594-10.488281 10.613281-15.710938 15.914063zm-94.699218 96.164062c-5.617188-8.824218-13.035156-16.460937-21.683594-22.34375l63.003906-62.765625 9.394532 8.691407c-.21875.5-.417969 1-.585938 1.511718-2.140625 6.535156.363281 14.089844 5.644531 18.355469-18.351562 18.695313-36.96875 37.636719-55.773437 56.550781zm56.742187-84.152344c-.445312.371094-.871093.753907-1.28125 1.140626l-8.421875-7.792969 3.683594-3.667969c2.949219 2.789062 5.996094 5.507812 9.101562 8.148438-1.058593.636718-2.09375 1.355468-3.082031 2.171874zm33.945313-70.847656c.425781-1.421875 1.636718-2.820312 2.949218-4.25 4.292969-4.671875 9.058594-9.128906 13.191407-12.941406 15.800781-14.574219 32.308593-28.765625 49.109375-42.21875.699218.5625 1.421875 1.089844 2.15625 1.59375l-65.328125 65.082031c-1.675781-2.578125-2.726563-5.097656-2.078125-7.265625zm-186.289063 221.925782c-2.167969-3.820313-1.574219-8.203126.453125-12.570313.207032.035156.410156.070313.625.074219 3.988282.054687 8.230469 2.046875 11.648438 5.460937 2.746094 2.75 5.023437 6.347657 7.125 11.21875-.683594.289063-1.375.558594-2.082032.785157-6.21875 1.996093-14.5625.679687-17.769531-4.96875zm36.777344-8.667969c-3.042969 2.953125-6.316406 6.128906-9.90625 8.769531-2.417969-5.402344-5.132813-9.523438-8.445313-12.835938-3.808593-3.8125-8.46875-6.378906-13.214843-7.367187 1.875-2.394531 3.964843-4.675781 6.023437-6.726563l14.125-14.070312c7.382813 7.21875 14.621094 14.707031 21.546875 22.335938-3.375 3.304687-6.75 6.613281-10.128906 9.894531zm15.894531-15.53125c-6.945312-7.644531-14.203125-15.148438-21.597656-22.390625l37-36.859375c8.804688 5.707031 16.269531 13.398437 21.671875 22.402343-12.300781 12.34375-24.664063 24.65625-37.074219 36.847657zm104.398438-105.078125c-3.136719-2.039063-4.839844-6.496094-3.675782-10.042969.804688-2.457031 2.664063-4.367187 4.082032-5.535156 2.6875-2.21875 5.734375-3.453125 8.589844-3.402344 2.65625.027344 5.195312 1.285156 6.535156 3.164063-5.191406 5.28125-10.371094 10.558593-15.53125 15.816406zm70.882812-53.503906c.171875.632812.214844.925781.21875 1.0625-.140625.230468-.535156.667968-.675781.820312-3.710937 4.113281-8.238281 7.972656-14.246094 12.148438-2.078125 1.445312-4.292969 2.890624-6.488281 3.273437-.917969.160156-1.839844.070313-2.589844-.195313 7.269532-7.359374 14.5625-14.722656 21.890625-22.085937.777344 1.59375 1.421875 3.25 1.890625 4.976563zm73.582032-75.992188c.570312.789062 1.515624 2.113281 1.453124 2.515625-.058593.351563-.875 1.3125-1.1875 1.679687-15.949218 18.796876-33.71875 36.242188-52.808593 51.847657-1.101563.902343-3.167969 2.578125-4.480469 2.4375-1.0625-.113281-2.308594-1.511719-3.222656-2.710938 19.421875-19.378906 39.066406-38.675781 58.945312-57.691406.425782.683594.875 1.328125 1.300782 1.921875zm51.832031-41.273438c-2.378907 4.789063-6.972657 8.394532-11.585938 11.578126-4.894531 3.375-10.046875 6.484374-15.316406 9.242187-.582031.304687-1.640625.894531-2.167969.859375-.179687-.003906-1.050781-.1875-2.425781-2.832031 10.566406-9.902344 21.199219-19.695313 31.902344-29.371094 1.582031 3.148437 1.117187 7.453125-.40625 10.523437zm58.984375-69.695312c-7.773438-14.832031-21.4375-26.503906-37.328125-31.820312 14.410156-20.195313 25.835937-39.671876 34.839843-59.234376.871094-1.890624 1.625-4.046874 2.355469-6.128906 1.464844-4.195312 3.292969-9.417968 5.699219-10.457031.886719-.382813 2.164062-.210937 3.789062.515625 8.691407 3.886719 17.371094 10.957031 25.027344 17.191406l2.496094 2.03125c8.882812 7.191406 17.328125 15.089844 25.109375 23.46875.695313.75 4.277344 5.34375 7.441406 9.390625 2.933594 3.757813 6.257813 8.015625 8.867188 11.269531.277343.34375.542969.675782.796875.992188-28.679688 9.910156-54.960938 25.316406-79.09375 42.78125zm0 0"/><path d="m71.316406 425.558594-12.425781 12.617187c-1.5625 1.585938-1.542969 4.140625.042969 5.699219.785156.777344 1.808594 1.160156 2.828125 1.160156 1.042969 0 2.082031-.402344 2.871093-1.203125l12.429688-12.617187c1.5625-1.585938 1.542969-4.136719-.042969-5.699219-1.585937-1.5625-4.140625-1.542969-5.703125.042969zm0 0"/><path d="m353 157.28125c1.554688.609375 3.203125.898438 4.847656.898438 4.144532 0 8.277344-1.847657 10.894532-5.140626 1.800781-2.265624 2.777343-5.011718 2.75-7.730468-.019532-2.054688-.617188-4.214844-1.777344-6.410156-2.960938-5.617188-9.25-8.660157-15.300782-7.402344-5.757812 1.195312-9.625 5.789062-10.089843 11.988281-.441407 5.851563 3.210937 11.65625 8.675781 13.796875zm3.058594-17.894531c2.152344-.445313 5.007812.390625 6.527344 3.273437.554687 1.050782.835937 1.96875.84375 2.726563.007812.863281-.355469 1.824219-1.003907 2.640625-1.457031 1.832031-4.304687 2.597656-6.484375 1.746094-2.179687-.855469-3.75-3.351563-3.574218-5.6875.257812-3.472657 2.421874-4.433594 3.691406-4.699219zm0 0"/><path d="m329.613281 181.65625c1.554688.609375 3.203125.898438 4.847657.898438 4.144531 0 8.277343-1.847657 10.894531-5.136719 1.800781-2.269531 2.777343-5.015625 2.753906-7.734375-.023437-2.054688-.617187-4.210938-1.777344-6.410156-2.964843-5.617188-9.257812-8.660157-15.300781-7.40625-5.757812 1.199218-9.625 5.792968-10.089844 11.992187-.445312 5.851563 3.203125 11.65625 8.671875 13.796875zm-.632812-13.195312c.257812-3.472657 2.421875-4.433594 3.691406-4.699219.355469-.074219.734375-.113281 1.121094-.113281 1.941406 0 4.136719.984374 5.40625 3.386718.550781 1.050782.835937 1.96875.84375 2.726563.007812.863281-.355469 1.824219-1.003907 2.640625-1.457031 1.832031-4.304687 2.597656-6.484374 1.746094-2.183594-.855469-3.753907-3.351563-3.574219-5.6875zm0 0"/><path d="m305.238281 205.371094c1.554688.609375 3.203125.902344 4.847657.902344 4.144531 0 8.277343-1.851563 10.894531-5.144532 1.800781-2.265625 2.777343-5.011718 2.75-7.730468-.019531-2.054688-.617188-4.210938-1.777344-6.410157-2.960937-5.617187-9.253906-8.660156-15.300781-7.402343-5.757813 1.195312-9.621094 5.789062-10.089844 11.988281-.441406 5.855469 3.210938 11.660156 8.675781 13.796875zm3.058594-17.894532c2.152344-.445312 5.007813.390626 6.523437 3.273438.554688 1.050781.839844 1.96875.847657 2.726562.007812.863282-.359375 1.824219-1.003907 2.640626-1.457031 1.832031-4.304687 2.601562-6.488281 1.746093-2.179687-.851562-3.75-3.351562-3.574219-5.6875.261719-3.472656 2.429688-4.433593 3.695313-4.699219zm0 0"/></svg>