<?xml version="1.0" encoding="iso-8859-1"?>
<!-- Generator: Adobe Illustrator 16.0.0, SVG Export Plug-In . SVG Version: 6.00 Build 0)  -->
<!DOCTYPE svg PUBLIC "-//W3C//DTD SVG 1.1//EN" "http://www.w3.org/Graphics/SVG/1.1/DTD/svg11.dtd">
<svg version="1.1" id="Capa_1" xmlns="http://www.w3.org/2000/svg" xmlns:xlink="http://www.w3.org/1999/xlink" x="0px" y="0px"
	 width="466.466px" height="466.466px" viewBox="0 0 466.466 466.466" style="enable-background:new 0 0 466.466 466.466;"
	 xml:space="preserve">
<g>
	<g>
		<path d="M147.932,288.2c0,0,9.359,24.08,12.343,33.365h-8.419h-7.849v7.851v6.937c-10.213,1.495-27.569,7.852-27.569,15.473
			c0,7.61,17.356,13.967,27.569,15.461v6.941v7.851h7.849h17.07v84.388h188.219v-84.388h6.372h7.846v-7.851v-6.901
			c10.167-1.41,27.868-7.811,27.868-15.501c0-7.697-17.701-14.105-27.868-15.508v-6.901v-7.851h-7.846h-3.928V288.2V110.831V56.693
			c0-14.609-11.846-26.453-26.457-26.453s-26.457,11.844-26.457,26.453v54.138H200.852V26.455C200.852,11.844,189.008,0,174.395,0
			c-14.607,0-26.457,11.844-26.457,26.455v84.376v68.708c0,0-41.575-35.911-65.194-16.322
			c-23.624,19.588-13.229,36.159-13.229,36.159L147.932,288.2z M363.52,329.416v7.254c-6.652,1.855-11.565,7.902-11.565,15.155
			c0,7.25,4.913,13.293,11.565,15.148v7.254H151.855v-7.161c6.817-1.748,11.872-7.883,11.872-15.241
			c0-7.369-5.055-13.5-11.872-15.248v-7.161H363.52z"/>
		<path d="M202.884,367.619c8.724,0,15.797-7.077,15.797-15.794c0-8.724-7.073-15.801-15.797-15.801
			c-8.72,0-23.644,7.077-23.644,15.801C179.24,360.55,194.164,367.619,202.884,367.619z"/>
		<circle cx="257.84" cy="351.822" r="15.797"/>
		<path d="M312.793,367.619c8.725,0,23.645-7.077,23.645-15.794c0-8.724-14.92-15.801-23.645-15.801
			c-8.724,0-15.793,7.077-15.793,15.801C297,360.55,304.069,367.619,312.793,367.619z"/>
	</g>
</g>
<g>
</g>
<g>
</g>
<g>
</g>
<g>
</g>
<g>
</g>
<g>
</g>
<g>
</g>
<g>
</g>
<g>
</g>
<g>
</g>
<g>
</g>
<g>
</g>
<g>
</g>
<g>
</g>
<g>
</g>
</svg>
