<svg id="Capa_1" enable-background="new 0 0 512 512" height="512" viewBox="0 0 512 512" width="512" xmlns="http://www.w3.org/2000/svg"><g><path d="m392.64 187.599c13.003-40.608 20.46-87.117 20.46-127.602h-.003v-19.997c0-22.056-17.944-40-40-40h-234.194c-22.056 0-40 17.944-40 40v19.997h-.003c0 40.484 7.457 86.993 20.46 127.602 9.539 29.792 26.2 69.728 52.05 94.352v44.474l-39.747 173.34c-.681 2.969.028 6.085 1.926 8.466 1.897 2.382 4.776 3.77 7.821 3.77h69.633c5.522 0 10-4.478 10-10s-4.478-10-10-10h-57.08l6.879-30h190.316l6.879 30h-57.08c-5.522 0-10 4.478-10 10s4.478 10 10 10h69.633c3.045 0 5.924-1.388 7.821-3.77 1.897-2.381 2.607-5.497 1.926-8.466l-39.747-173.34v-44.475c25.85-24.623 42.511-64.56 52.05-94.351zm-201.23 99.958h129.18v30h-129.18zm74.59-20v-197.557h53.474c-1.119 77.217-14.936 161.795-32.222 197.557zm-20 0h-21.252c-17.286-35.762-31.103-120.34-32.222-197.557h53.474zm80.714 0h-17.635c18.303-45.461 29.38-129.964 30.393-197.557h53.475c-2.294 78.088-30.901 163.8-66.233 197.557zm-207.811-227.557c0-11.028 8.972-20 20-20h234.193c11.028 0 20 8.972 20 20v10h-274.193zm.151 30h53.475c1.013 67.592 12.09 152.096 30.393 197.557h-17.635c-35.333-33.757-63.94-119.469-66.233-197.557zm46.374 372 23.949-104.443h133.246l23.949 104.443z"/><circle cx="256" cy="502" r="10"/></g></svg>