<!-- Generator: Adobe Illustrator 22.0.1, SVG Export Plug-In  -->
<svg version="1.1"
	 xmlns="http://www.w3.org/2000/svg" xmlns:xlink="http://www.w3.org/1999/xlink" xmlns:a="http://ns.adobe.com/AdobeSVGViewerExtensions/3.0/"
	 x="0px" y="0px" width="319.6px" height="34.4px" viewBox="0 0 319.6 34.4" style="enable-background:new 0 0 319.6 34.4;"
	 xml:space="preserve">
<style type="text/css">
	.st0{fill:#0C050D;}
</style>
<defs>
</defs>
<path class="st0" d="M0,0h16.4v6.4H7v6.5h8.9v6.3H7.1v8.1h9.5v6.4H0V0z"/>
<path class="st0" d="M37.7,33.7H19.2V23.2h7.1v4.1h4.4V22l-11.2-8.5V0h18.1v10h-6.4V6.4h-4.6v4.4l11.2,8.4V33.7z"/>
<path class="st0" d="M53.5,27.3v-4.1h7.1V29L56,33.7H40.8V4.6l5-4.6h14.8v12.7h-7.1V6.4h-5.7v20.9H53.5z"/>
<path class="st0" d="M83.4,33.7H63.4V0h7.1v27.3h5.8V0h7.1V33.7z"/>
<path class="st0" d="M86.5,0h16.4v6.4h-9.4v6.5h8.9v6.3h-8.8v8.1h9.5v6.4H86.5V0z"/>
<path class="st0" d="M105.7,33.7V0h7.1v27.3h9.9v6.4H105.7z"/>
<path class="st0" d="M132.8,33.7h-7.1V5.3l5.4-5.3h14.7v33.7h-7.1V22.6h-6V33.7z M138.8,16.2V6.4h-6v9.8H138.8z"/>
<path class="st0" d="M157.8,0.1h14.5l5.4,5.3v23.7l-4.7,4.7h-15.2V0.1z M170.6,27.4V6.5h-5.8v20.9H170.6z"/>
<path class="st0" d="M180.5,0.1h16.3v6.4h-9.4V13h8.9v6.3h-8.8v8.1h9.5v6.4h-16.6V0.1z"/>
<path class="st0" d="M212.8,0.1h7.2l-4.5,33.6h-11.2l-4.6-33.6h7.4l2.8,25.8L212.8,0.1z"/>
<path class="st0" d="M252.2,0h20.4v33.7h-20.4V0z M259.3,27.3h6.2V6.4h-6.2V27.3z"/>
<path class="st0" d="M288.4,27.3v-4.1h7.1v5.8l-4.7,4.7h-15.2V4.6l5-4.6h14.8v12.7h-7.1V6.4h-5.7v20.9H288.4z"/>
<path class="st0" d="M319.6,15v18.7h-7.1V21.4h-7.1v12.3h-7.1V0h7.1v15h0.5l6.6-15h7l-6.5,15H319.6z"/>
<polygon class="st0" points="245.2,22.4 248,22.4 248,15.4 248,0.4 237.9,0.4 231,0.4 235.8,15.4 229,15.4 229,22.4 229,34.4 
	236,34.4 236,22.4 238.3,22.4 238.3,22.4 242.5,34.4 249.5,34.4 249.6,34.4 "/>
</svg>
